<svg width="20" height="10" viewBox="0 0 20 10" fill="none" xmlns="http://www.w3.org/2000/svg">
<g clip-path="url(#clip0_20_3374)">
<path d="M2.5 4.54223C2.5 4.70799 2.56585 4.86696 2.68306 4.98417C2.80027 5.10138 2.95924 5.16723 3.125 5.16723H15.3663L12.6838 7.84973C12.5699 7.96761 12.5069 8.12548 12.5083 8.28936C12.5098 8.45323 12.5755 8.60999 12.6914 8.72587C12.8072 8.84175 12.964 8.90748 13.1279 8.9089C13.2917 8.91033 13.4496 8.84733 13.5675 8.73348L17.3175 4.98348C17.3753 4.92598 17.4212 4.85762 17.4525 4.78232C17.4839 4.70703 17.5 4.62628 17.5 4.54473V4.54223C17.5 4.46098 17.4838 4.37973 17.4513 4.30348C17.4201 4.22771 17.3742 4.15888 17.3162 4.10098L13.5662 0.350982C13.4484 0.237133 13.2905 0.174137 13.1266 0.175561C12.9628 0.176985 12.806 0.242715 12.6901 0.358595C12.5742 0.474475 12.5085 0.631233 12.5071 0.795106C12.5057 0.958979 12.5687 1.11686 12.6825 1.23473L15.3663 3.91723H3.125C2.95924 3.91723 2.80027 3.98308 2.68306 4.10029C2.56585 4.2175 2.5 4.37647 2.5 4.54223Z" fill="#303030"/>
</g>
<defs>
<clipPath id="clip0_20_3374">
<rect width="20" height="9" fill="white" transform="translate(0 0.167236)"/>
</clipPath>
</defs>
</svg>
