<svg width="1196" height="499" viewBox="0 0 1196 499" fill="none" xmlns="http://www.w3.org/2000/svg">
<g filter="url(#filter0_f_2017_3023)">
<ellipse cx="568.5" cy="820.448" rx="491.5" ry="319.5" fill="#CA0000"/>
</g>
<g opacity="0.5">
<circle cx="36.4171" cy="184.67" r="1.14859" fill="#D9D9D9"/>
<circle cx="1.14859" cy="1.14859" r="1.14859" transform="matrix(1 0 0 -1 246.613 231.762)" fill="#D9D9D9"/>
<circle cx="968.691" cy="265.454" r="1.14859" transform="rotate(180 968.691 265.454)" fill="#D9D9D9"/>
<circle cx="1.14859" cy="1.14859" r="1.14859" transform="matrix(1 0 0 -1 581.237 137.196)" fill="#D9D9D9"/>
<circle cx="77.7674" cy="202.282" r="0.765725" fill="#D9D9D9"/>
<circle cx="859.575" cy="49.1369" r="0.765725" fill="#D9D9D9"/>
<circle cx="0.765725" cy="0.765725" r="0.765725" transform="matrix(-1 0 0 1 1139.45 236.357)" fill="#D9D9D9"/>
<circle cx="0.765725" cy="0.765725" r="0.765725" transform="matrix(1 0 0 -1 288.342 213.768)" fill="#D9D9D9"/>
<circle cx="0.765725" cy="0.765725" r="0.765725" transform="matrix(1 0 0 -1 700.689 110.778)" fill="#D9D9D9"/>
<circle cx="927.341" cy="247.843" r="0.765725" transform="rotate(180 927.341 247.843)" fill="#D9D9D9"/>
<circle cx="0.765725" cy="0.765725" r="0.765725" transform="matrix(1 0 0 -1 622.966 119.201)" fill="#D9D9D9"/>
<circle cx="129.072" cy="245.163" r="0.765725" fill="#D9D9D9"/>
<circle cx="910.88" cy="92.0177" r="0.765725" fill="#D9D9D9"/>
<circle cx="0.765725" cy="0.765725" r="0.765725" transform="matrix(-1 0 0 1 1088.15 279.237)" fill="#D9D9D9"/>
<circle cx="29.3376" cy="236.165" r="1.34002" fill="#D9D9D9"/>
<circle cx="130.797" cy="206.302" r="1.34002" fill="#D9D9D9"/>
<circle cx="912.6" cy="53.157" r="1.34002" fill="#D9D9D9"/>
<circle cx="1.34002" cy="1.34002" r="1.34002" transform="matrix(-1 0 0 1 1087 239.802)" fill="#D9D9D9"/>
<circle cx="94.999" cy="147.15" r="1.53145" fill="#D9D9D9" fill-opacity="0.4"/>
<circle cx="1.53145" cy="1.53145" r="1.53145" transform="matrix(-1 0 0 1 1122.99 180.459)" fill="#D9D9D9" fill-opacity="0.4"/>
<circle cx="508.108" cy="76.3204" r="1.53145" fill="#D9D9D9" fill-opacity="0.4"/>
<circle cx="306.339" cy="165.91" r="1.53145" fill="#D9D9D9" fill-opacity="0.4"/>
<circle cx="718.679" cy="62.9201" r="1.53145" fill="#D9D9D9" fill-opacity="0.4"/>
<circle cx="1007.36" cy="34.2054" r="1.53145" fill="#D9D9D9" fill-opacity="0.4"/>
<circle cx="1.53145" cy="1.53145" r="1.53145" transform="matrix(-1 0 0 1 911.645 199.219)" fill="#D9D9D9" fill-opacity="0.4"/>
<circle cx="121.417" cy="153.659" r="1.53145" fill="#D9D9D9" fill-opacity="0.1"/>
<circle cx="1.53145" cy="1.53145" r="1.53145" transform="matrix(-1 0 0 1 1096.57 186.968)" fill="#D9D9D9" fill-opacity="0.1"/>
<circle cx="534.526" cy="82.8289" r="1.53145" fill="#D9D9D9" fill-opacity="0.1"/>
<circle cx="332.757" cy="172.419" r="1.53145" fill="#D9D9D9" fill-opacity="0.1"/>
<circle cx="745.101" cy="69.4288" r="1.53145" fill="#D9D9D9" fill-opacity="0.1"/>
<circle cx="1033.78" cy="40.7141" r="1.53145" fill="#D9D9D9" fill-opacity="0.1"/>
<circle cx="1.53145" cy="1.53145" r="1.53145" transform="matrix(-1 0 0 1 885.227 205.728)" fill="#D9D9D9" fill-opacity="0.1"/>
<circle cx="61.3078" cy="122.647" r="1.14859" fill="#D9D9D9" fill-opacity="0.5"/>
<circle cx="1.14859" cy="1.14859" r="1.14859" transform="matrix(-1 0 0 1 1156.29 156.339)" fill="#D9D9D9" fill-opacity="0.5"/>
<circle cx="474.417" cy="51.817" r="1.14859" fill="#D9D9D9" fill-opacity="0.5"/>
<circle cx="1.14859" cy="1.14859" r="1.14859" transform="matrix(-1 0 0 1 337.35 140.258)" fill="#D9D9D9" fill-opacity="0.5"/>
<circle cx="1.14859" cy="1.14859" r="1.14859" transform="matrix(-1 0 0 1 749.694 37.2683)" fill="#D9D9D9" fill-opacity="0.5"/>
<circle cx="1.14859" cy="1.14859" r="1.14859" transform="matrix(-1 0 0 1 1038.37 8.55359)" fill="#D9D9D9" fill-opacity="0.5"/>
<circle cx="880.251" cy="176.247" r="1.14859" fill="#D9D9D9" fill-opacity="0.5"/>
<circle cx="108.205" cy="103.312" r="1.72288" fill="#D9D9D9" fill-opacity="0.7"/>
<circle cx="1.72288" cy="1.72288" r="1.72288" transform="matrix(-1 0 0 1 1109.97 136.43)" fill="#D9D9D9" fill-opacity="0.7"/>
<circle cx="521.314" cy="32.4825" r="1.72288" fill="#D9D9D9" fill-opacity="0.7"/>
<circle cx="1.72288" cy="1.72288" r="1.72288" transform="matrix(-1 0 0 1 291.023 120.349)" fill="#D9D9D9" fill-opacity="0.7"/>
<circle cx="1.72288" cy="1.72288" r="1.72288" transform="matrix(-1 0 0 1 703.371 17.3595)" fill="#D9D9D9" fill-opacity="0.7"/>
<circle cx="927.148" cy="156.913" r="1.72288" fill="#D9D9D9" fill-opacity="0.7"/>
<circle cx="66.284" cy="97.3778" r="0.765725" fill="#D9D9D9" fill-opacity="0.2"/>
<circle cx="0.765725" cy="0.765725" r="0.765725" transform="matrix(-1 0 0 1 1150.93 131.452)" fill="#D9D9D9" fill-opacity="0.2"/>
<circle cx="479.393" cy="26.5481" r="0.765725" fill="#D9D9D9" fill-opacity="0.2"/>
<circle cx="0.765725" cy="0.765725" r="0.765725" transform="matrix(-1 0 0 1 331.991 115.372)" fill="#D9D9D9" fill-opacity="0.2"/>
<circle cx="885.227" cy="150.978" r="0.765725" fill="#D9D9D9" fill-opacity="0.2"/>
<circle cx="83.1305" cy="65.6001" r="0.765725" fill="#D9D9D9" fill-opacity="0.2"/>
<circle cx="0.765725" cy="0.765725" r="0.765725" transform="matrix(-1 0 0 1 1134.09 99.6748)" fill="#D9D9D9" fill-opacity="0.2"/>
<circle cx="0.765725" cy="0.765725" r="0.765725" transform="matrix(-1 0 0 1 315.145 83.5945)" fill="#D9D9D9" fill-opacity="0.2"/>
<circle cx="902.073" cy="119.201" r="0.765725" fill="#D9D9D9" fill-opacity="0.2"/>
<circle cx="0.765725" cy="0.765725" r="0.765725" transform="matrix(-1 0 0 1 410.476 38.4169)" fill="#D9D9D9" fill-opacity="0.2"/>
<circle cx="125.244" cy="106.949" r="0.765725" fill="#D9D9D9" fill-opacity="0.2"/>
<circle cx="0.765725" cy="0.765725" r="0.765725" transform="matrix(-1 0 0 1 1091.97 141.024)" fill="#D9D9D9" fill-opacity="0.2"/>
<circle cx="538.354" cy="36.1196" r="0.765725" fill="#D9D9D9" fill-opacity="0.2"/>
<circle cx="0.765725" cy="0.765725" r="0.765725" transform="matrix(-1 0 0 1 273.031 124.944)" fill="#D9D9D9" fill-opacity="0.2"/>
<circle cx="0.765725" cy="0.765725" r="0.765725" transform="matrix(-1 0 0 1 685.374 21.9537)" fill="#D9D9D9" fill-opacity="0.2"/>
<circle cx="944.188" cy="160.55" r="0.765725" fill="#D9D9D9" fill-opacity="0.2"/>
<circle cx="194.542" cy="172.036" r="0.765725" fill="#D9D9D9" fill-opacity="0.2"/>
<circle cx="976.345" cy="18.891" r="0.765725" fill="#D9D9D9" fill-opacity="0.2"/>
<circle cx="0.765725" cy="0.765725" r="0.765725" transform="matrix(-1 0 0 1 1022.67 206.111)" fill="#D9D9D9" fill-opacity="0.2"/>
<circle cx="0.765725" cy="0.765725" r="0.765725" transform="matrix(1 0 0 -1 405.121 244.014)" fill="#D9D9D9" fill-opacity="0.2"/>
<circle cx="810.566" cy="278.089" r="0.765725" transform="rotate(180 810.566 278.089)" fill="#D9D9D9" fill-opacity="0.2"/>
<circle cx="163.91" cy="222.191" r="1.14859" fill="#D9D9D9" fill-opacity="0.2"/>
<circle cx="945.721" cy="69.0459" r="1.14859" fill="#D9D9D9" fill-opacity="0.2"/>
<circle cx="1.14859" cy="1.14859" r="1.14859" transform="matrix(-1 0 0 1 1053.68 255.883)" fill="#D9D9D9" fill-opacity="0.2"/>
<circle cx="498.534" cy="127.624" r="1.14859" fill="#D9D9D9" fill-opacity="0.2"/>
<circle cx="1.14859" cy="1.14859" r="1.14859" transform="matrix(1 0 0 -1 374.105 194.242)" fill="#D9D9D9" fill-opacity="0.2"/>
<circle cx="1.14859" cy="1.14859" r="1.14859" transform="matrix(1 0 0 -1 786.449 91.252)" fill="#D9D9D9" fill-opacity="0.2"/>
<circle cx="1.14859" cy="1.14859" r="1.14859" transform="matrix(1 0 0 -1 1075.13 62.5372)" fill="#D9D9D9" fill-opacity="0.2"/>
<circle cx="841.199" cy="227.934" r="1.14859" transform="rotate(180 841.199 227.934)" fill="#D9D9D9" fill-opacity="0.2"/>
<circle cx="209.088" cy="223.722" r="1.53145" fill="#D9D9D9" fill-opacity="0.2"/>
<circle cx="1.53145" cy="1.53145" r="1.53145" transform="matrix(-1 0 0 1 1008.89 257.031)" fill="#D9D9D9" fill-opacity="0.2"/>
<circle cx="543.713" cy="129.155" r="1.53145" fill="#D9D9D9" fill-opacity="0.2"/>
<circle cx="1.53145" cy="1.53145" r="1.53145" transform="matrix(1 0 0 -1 418.897 193.093)" fill="#D9D9D9" fill-opacity="0.2"/>
<circle cx="1.53145" cy="1.53145" r="1.53145" transform="matrix(1 0 0 -1 1119.92 61.3887)" fill="#D9D9D9" fill-opacity="0.2"/>
<circle cx="796.02" cy="226.402" r="1.53145" transform="rotate(180 796.02 226.402)" fill="#D9D9D9" fill-opacity="0.2"/>
<circle cx="147.069" cy="98.1434" r="0.765725" fill="#D9D9D9" fill-opacity="0.2"/>
<circle cx="0.765725" cy="0.765725" r="0.765725" transform="matrix(-1 0 0 1 1070.15 132.218)" fill="#D9D9D9" fill-opacity="0.2"/>
<circle cx="560.178" cy="27.3138" r="0.765725" fill="#D9D9D9" fill-opacity="0.2"/>
<circle cx="358.41" cy="116.904" r="0.765725" fill="#D9D9D9" fill-opacity="0.2"/>
<circle cx="0.765725" cy="0.765725" r="0.765725" transform="matrix(-1 0 0 1 858.809 150.979)" fill="#D9D9D9" fill-opacity="0.2"/>
<circle cx="114.908" cy="61.7714" r="1.53145" fill="#D9D9D9" fill-opacity="0.2"/>
<circle cx="1.53145" cy="1.53145" r="1.53145" transform="matrix(-1 0 0 1 1103.08 95.0806)" fill="#D9D9D9" fill-opacity="0.2"/>
<circle cx="1.53145" cy="1.53145" r="1.53145" transform="matrix(-1 0 0 1 284.133 79.0002)" fill="#D9D9D9" fill-opacity="0.2"/>
<circle cx="933.851" cy="115.372" r="1.53145" fill="#D9D9D9" fill-opacity="0.2"/>
<circle cx="1.53145" cy="1.53145" r="1.53145" transform="matrix(-1 0 0 1 379.468 33.8225)" fill="#D9D9D9" fill-opacity="0.2"/>
<circle cx="173.675" cy="65.7915" r="0.957157" fill="#D9D9D9" fill-opacity="0.2"/>
<circle cx="0.957157" cy="0.957157" r="0.957157" transform="matrix(-1 0 0 1 1043.73 99.6748)" fill="#D9D9D9" fill-opacity="0.2"/>
<circle cx="385.019" cy="84.5516" r="0.957157" fill="#D9D9D9" fill-opacity="0.2"/>
<circle cx="0.957157" cy="0.957157" r="0.957157" transform="matrix(-1 0 0 1 832.391 118.435)" fill="#D9D9D9" fill-opacity="0.2"/>
<circle cx="86.5756" cy="42.6283" r="1.14859" fill="#D9D9D9"/>
<circle cx="1.14859" cy="1.14859" r="1.14859" transform="matrix(-1 0 0 1 1131.03 76.3203)" fill="#D9D9D9"/>
<circle cx="1.14859" cy="1.14859" r="1.14859" transform="matrix(-1 0 0 1 312.086 60.24)" fill="#D9D9D9"/>
<circle cx="905.518" cy="96.2292" r="1.14859" fill="#D9D9D9"/>
<circle cx="1.14859" cy="1.14859" r="1.14859" transform="matrix(-1 0 0 1 407.414 15.0623)" fill="#D9D9D9"/>
<circle cx="191.863" cy="78.6175" r="1.14859" fill="#D9D9D9" fill-opacity="0.5"/>
<circle cx="1.14859" cy="1.14859" r="1.14859" transform="matrix(-1 0 0 1 1025.74 112.309)" fill="#D9D9D9" fill-opacity="0.5"/>
<circle cx="403.203" cy="97.3777" r="1.14859" fill="#D9D9D9" fill-opacity="0.5"/>
<circle cx="1.14859" cy="1.14859" r="1.14859" transform="matrix(-1 0 0 1 814.398 131.07)" fill="#D9D9D9" fill-opacity="0.5"/>
<circle cx="207.559" cy="105.418" r="1.14859" fill="#D9D9D9" fill-opacity="0.5"/>
<circle cx="1.14859" cy="1.14859" r="1.14859" transform="matrix(-1 0 0 1 1010.04 139.11)" fill="#D9D9D9" fill-opacity="0.5"/>
<circle cx="418.899" cy="124.178" r="1.14859" fill="#D9D9D9" fill-opacity="0.5"/>
<circle cx="1.14859" cy="1.14859" r="1.14859" transform="matrix(-1 0 0 1 798.698 157.87)" fill="#D9D9D9" fill-opacity="0.5"/>
<circle cx="218.281" cy="44.5426" r="1.14859" fill="#D9D9D9" fill-opacity="0.4"/>
<circle cx="1.14859" cy="1.14859" r="1.14859" transform="matrix(-1 0 0 1 999.32 78.2347)" fill="#D9D9D9" fill-opacity="0.4"/>
<circle cx="429.621" cy="63.3029" r="1.14859" fill="#D9D9D9" fill-opacity="0.4"/>
<circle cx="926.576" cy="15.4451" r="1.53145" fill="#D9D9D9" fill-opacity="0.1"/>
</g>
<path fill-rule="evenodd" clip-rule="evenodd" d="M122.69 -5.96079H3.91188V112.82H110.385L122.69 100.514V-5.96079ZM135.324 112.82L123.177 100.673V-5.96079H241.956V112.82H135.324ZM123.177 125.273L135.143 113.307H241.956V232.088H123.177V125.273ZM110.566 113.307L122.69 125.432V232.088H3.91188V113.307H110.566ZM3.49463 -6.37805V112.89V113.237V232.157V232.505V351.425V351.772V470.692V471.04V589.96V590.307V709.575H122.76H123.108H242.025H242.373H361.29H361.638H480.555H480.903H599.82H600.168H719.086H719.433H838.351H838.699H957.616H957.964H1076.88H1077.23H1196.49L1196.49 590.307V471.04V470.692V351.425V232.505V113.237V112.89V-6.37805H1077.23H1076.88H957.964H957.616H838.699H838.351H719.433H719.086H600.168H599.82H480.903H480.555H361.638H361.29H242.373H242.025H123.108H122.76H3.49463ZM242.442 -5.96079H361.221V112.82H242.442V-5.96079ZM480.486 -5.96079H361.707V112.82H480.486V-5.96079ZM480.973 -5.96079H599.751V112.82H480.973V-5.96079ZM719.016 -5.96079H600.238V112.82H719.016V-5.96079ZM719.503 -5.96079H838.281V112.82H719.503V-5.96079ZM957.547 -5.96079H838.768V112.82H957.547V-5.96079ZM958.033 -5.96079H1076.81V112.82H958.033V-5.96079ZM1196.08 -5.96079H1077.3V112.82H1196.08V-5.96079ZM242.442 113.307H361.221V232.088H242.442V113.307ZM480.486 113.307H361.707V232.088H468.538L480.486 220.14V113.307ZM492.729 232.088L480.973 220.331V113.307H599.751V232.088H492.729ZM480.973 244.899L493.256 232.615L493.216 232.574H599.751V351.355H480.973V244.899ZM468.052 232.574L468.011 232.615L480.486 245.09V351.355H361.707V232.574H468.052ZM719.016 113.307H600.238V232.088H719.016V113.307ZM719.503 113.307H838.281V232.088H719.503V113.307ZM957.547 113.307H838.768V232.088H957.547V113.307ZM958.033 113.307H1076.81V199.134L1076.61 199.336L1043.86 232.088H958.033V113.307ZM1043.37 232.574H958.034V339.653L958.432 339.254L970.533 351.355H1076.81V266.096L1076.61 265.894L1043.65 232.937L1043.33 232.615L1043.37 232.574ZM1076.81 265.452L1043.98 232.615L1044.02 232.574H1064.35L1064.31 232.615L1076.81 245.117V265.452ZM1077.3 265.85V351.355H1196.08V232.574H1110.49L1110.53 232.615L1110.21 232.937L1077.3 265.85ZM1109.85 232.574L1109.89 232.615L1077.3 265.206V244.872L1089.56 232.615L1089.51 232.574H1109.85ZM1110.01 232.088H1196.08V113.307H1077.3V199.38L1110.01 232.088ZM1077.3 200.024L1109.36 232.088H1089.03L1077.3 220.358V200.024ZM1076.81 199.779L1044.5 232.088H1064.84L1076.81 220.113V199.779ZM958.033 364.101L958.432 364.5L971.055 351.877L971.02 351.842H1076.81V470.623H958.033V364.101ZM945.845 351.842L945.81 351.877L957.547 363.614V470.623H838.768V351.842H945.845ZM957.547 340.14L946.332 351.355H838.768V232.574H957.547V340.14ZM3.91188 232.574H122.69V351.355H3.91188V232.574ZM241.956 232.574H123.177V351.355H241.956V232.574ZM242.442 232.574H361.221V351.355H242.442V232.574ZM719.016 232.574H600.238V351.355H719.016V232.574ZM719.503 232.574H838.281V351.355H719.503V232.574ZM3.91188 351.842H122.69V470.623H3.91188V351.842ZM241.956 351.842H123.177V470.623H209.136L208.982 470.468L209.304 470.146L241.956 437.494V351.842ZM241.956 438.138L209.627 470.468L209.781 470.623H230.115L229.96 470.468L241.956 458.473V438.138ZM242.442 457.986V437.652L242.583 437.511L275.539 470.468L275.385 470.623H255.051L255.206 470.468L242.583 457.845L242.442 457.986ZM242.442 482.95L242.583 483.091L254.564 471.109H274.898L242.583 503.425L242.442 503.284V482.95ZM230.602 471.109L241.956 482.463V502.798L210.268 471.109H230.602ZM209.623 471.109H123.177V589.89H241.956V503.442L209.623 471.109ZM242.442 503.929V589.89H361.221V471.109H275.542L242.905 503.747L242.583 504.07L242.442 503.929ZM276.029 470.623H361.221V351.842H242.442V437.007L242.583 436.866L242.905 437.189L275.862 470.146L276.184 470.468L276.029 470.623ZM480.486 351.842H361.707V470.623H480.486V351.842ZM480.973 351.842H599.751V470.623H480.973V351.842ZM719.016 351.842H600.238V470.623H719.016V351.842ZM719.503 351.842H838.281V470.623H719.503V351.842ZM1196.08 351.842H1077.3V470.623H1196.08V351.842ZM3.91188 471.109H122.69V589.89H3.91188V471.109ZM480.486 471.109H361.707V589.89H480.486V471.109ZM480.973 471.109H599.751V589.89H480.973V471.109ZM719.016 471.109H600.238V589.89H719.016V471.109ZM719.503 471.109H838.281V589.89H719.503V471.109ZM957.547 471.109H838.768V589.89H957.547V471.109ZM958.033 471.109H1076.81V589.89H958.033V471.109ZM1196.08 471.109H1077.3V589.89H1196.08V471.109ZM3.91188 590.377H122.69V709.158H3.91188V590.377ZM241.956 590.377H123.177V709.158H241.956V590.377ZM242.442 590.377H361.221V709.158H242.442V590.377ZM480.486 590.377H361.707V709.158H480.486V590.377ZM480.973 590.377H599.751V709.158H480.973V590.377ZM719.016 590.377H600.238V709.158H719.016V590.377ZM719.503 590.377H838.281V709.158H719.503V590.377ZM957.547 590.377H838.768V709.158H957.547V590.377ZM958.033 590.377H1076.81V709.158H958.033V590.377ZM1196.08 590.377H1077.3V709.158H1196.08V590.377Z" fill="url(#paint0_radial_2017_3023)" fill-opacity="0.35"/>
<defs>
<filter id="filter0_f_2017_3023" x="-133.574" y="290.374" width="1404.15" height="1060.15" filterUnits="userSpaceOnUse" color-interpolation-filters="sRGB">
<feFlood flood-opacity="0" result="BackgroundImageFix"/>
<feBlend mode="normal" in="SourceGraphic" in2="BackgroundImageFix" result="shape"/>
<feGaussianBlur stdDeviation="105.287" result="effect1_foregroundBlur_2017_3023"/>
</filter>
<radialGradient id="paint0_radial_2017_3023" cx="0" cy="0" r="1" gradientUnits="userSpaceOnUse" gradientTransform="translate(599.995 -408.223) rotate(90) scale(1027.59 1712.29)">
<stop stop-color="white"/>
<stop offset="1" stop-color="white" stop-opacity="0"/>
</radialGradient>
</defs>
</svg>
