<svg width="20" height="21" viewBox="0 0 20 21" fill="none" xmlns="http://www.w3.org/2000/svg">
<mask id="path-1-outside-1_20_2252" maskUnits="userSpaceOnUse" x="0.24115" y="0.906006" width="20" height="20" fill="black">
<rect fill="white" x="0.24115" y="0.906006" width="20" height="20"/>
<path fill-rule="evenodd" clip-rule="evenodd" d="M19.2924 4.2223C17.5272 4.5184 17.2872 4.76019 16.9933 6.53859C16.6994 4.76019 16.4594 4.5184 14.6943 4.2223C16.4594 3.92619 16.6994 3.6844 16.9933 1.90601C17.2872 3.6844 17.5272 3.92619 19.2924 4.2223ZM8.12599 16.775C5.48246 17.2196 5.1249 17.5799 4.68357 20.2432C4.24223 17.5799 3.88468 17.2196 1.24115 16.775C3.88468 16.3303 4.24223 15.9701 4.68357 13.3068C5.1249 15.9701 5.48246 16.3303 8.12599 16.775ZM10.6928 17.8945C11.6783 11.9827 12.4786 11.1836 18.3904 10.1969H18.3892C12.4774 9.2114 11.6783 8.41106 10.6915 2.49926C9.70604 8.41106 8.9057 9.2114 2.99513 10.1969C8.90692 11.1824 9.70604 11.9827 10.6928 17.8945Z"/>
</mask>
<path fill-rule="evenodd" clip-rule="evenodd" d="M19.2924 4.2223C17.5272 4.5184 17.2872 4.76019 16.9933 6.53859C16.6994 4.76019 16.4594 4.5184 14.6943 4.2223C16.4594 3.92619 16.6994 3.6844 16.9933 1.90601C17.2872 3.6844 17.5272 3.92619 19.2924 4.2223ZM8.12599 16.775C5.48246 17.2196 5.1249 17.5799 4.68357 20.2432C4.24223 17.5799 3.88468 17.2196 1.24115 16.775C3.88468 16.3303 4.24223 15.9701 4.68357 13.3068C5.1249 15.9701 5.48246 16.3303 8.12599 16.775ZM10.6928 17.8945C11.6783 11.9827 12.4786 11.1836 18.3904 10.1969H18.3892C12.4774 9.2114 11.6783 8.41106 10.6915 2.49926C9.70604 8.41106 8.9057 9.2114 2.99513 10.1969C8.90692 11.1824 9.70604 11.9827 10.6928 17.8945Z" fill="white"/>
<path d="M16.9933 6.53859L16.5675 6.60895C16.602 6.81731 16.7821 6.97015 16.9933 6.97015C17.2045 6.97015 17.3847 6.81732 17.4191 6.60895L16.9933 6.53859ZM19.2924 4.2223L19.3638 4.64791C19.5717 4.61304 19.7239 4.43309 19.7239 4.2223C19.7239 4.0115 19.5717 3.83155 19.3638 3.79668L19.2924 4.2223ZM14.6943 4.2223L14.6229 3.79668C14.415 3.83155 14.2627 4.0115 14.2627 4.2223C14.2627 4.43309 14.415 4.61304 14.6229 4.64791L14.6943 4.2223ZM16.9933 1.90601L17.4191 1.83564C17.3847 1.62728 17.2045 1.47444 16.9933 1.47444C16.7821 1.47444 16.602 1.62728 16.5675 1.83564L16.9933 1.90601ZM4.68357 20.2432L4.25781 20.3138C4.29233 20.522 4.47245 20.6748 4.68357 20.6748C4.89469 20.6748 5.07481 20.522 5.10932 20.3138L4.68357 20.2432ZM8.12599 16.775L8.19757 17.2006C8.40537 17.1656 8.55755 16.9857 8.55755 16.775C8.55755 16.5643 8.40537 16.3843 8.19757 16.3494L8.12599 16.775ZM1.24115 16.775L1.16957 16.3494C0.961764 16.3843 0.809588 16.5643 0.809588 16.775C0.809588 16.9857 0.961764 17.1656 1.16957 17.2006L1.24115 16.775ZM4.68357 13.3068L5.10932 13.2362C5.07481 13.0279 4.89469 12.8752 4.68357 12.8752C4.47245 12.8752 4.29233 13.0279 4.25781 13.2362L4.68357 13.3068ZM18.3904 10.1969L18.4614 10.6226C18.6829 10.5856 18.839 10.385 18.8205 10.1613C18.8019 9.93749 18.6149 9.76533 18.3904 9.76533V10.1969ZM10.6928 17.8945L10.2671 17.9656C10.3018 18.1736 10.4819 18.3261 10.6928 18.3261C10.9037 18.3261 11.0838 18.1736 11.1185 17.9655L10.6928 17.8945ZM18.3892 10.1969L18.3182 10.6226C18.3417 10.6265 18.3654 10.6285 18.3892 10.6285V10.1969ZM10.6915 2.49926L11.1172 2.42822C11.0825 2.22015 10.9024 2.06768 10.6915 2.0677C10.4806 2.06772 10.3005 2.22023 10.2659 2.4283L10.6915 2.49926ZM2.99513 10.1969L2.92415 9.77121C2.71607 9.80591 2.56357 9.98595 2.56357 10.1969C2.56357 10.4079 2.71608 10.5879 2.92417 10.6226L2.99513 10.1969ZM17.4191 6.60895C17.5703 5.69431 17.6927 5.33483 17.8974 5.1286C18.1013 4.92319 18.4562 4.80016 19.3638 4.64791L19.221 3.79668C18.3634 3.94054 17.7157 4.08646 17.2848 4.52057C16.8548 4.95386 16.7103 5.60447 16.5675 6.46822L17.4191 6.60895ZM14.6229 4.64791C15.5305 4.80016 15.8853 4.92319 16.0892 5.1286C16.2939 5.33483 16.4164 5.69431 16.5675 6.60895L17.4191 6.46822C17.2764 5.60447 17.1319 4.95386 16.7018 4.52057C16.2709 4.08646 15.6232 3.94054 14.7657 3.79668L14.6229 4.64791ZM16.5675 1.83564C16.4164 2.75028 16.2939 3.10977 16.0892 3.31599C15.8853 3.5214 15.5305 3.64443 14.6229 3.79668L14.7657 4.64791C15.6232 4.50406 16.2709 4.35814 16.7018 3.92403C17.1319 3.49073 17.2764 2.84012 17.4191 1.97637L16.5675 1.83564ZM19.3638 3.79668C18.4562 3.64443 18.1013 3.5214 17.8974 3.31599C17.6927 3.10977 17.5703 2.75028 17.4191 1.83564L16.5675 1.97637C16.7103 2.84012 16.8548 3.49073 17.2848 3.92403C17.7157 4.35814 18.3634 4.50406 19.221 4.64791L19.3638 3.79668ZM5.10932 20.3138C5.33424 18.9565 5.52292 18.3462 5.88525 17.9811C6.24679 17.6169 6.85061 17.4271 8.19757 17.2006L8.0544 16.3494C6.75784 16.5675 5.86112 16.7802 5.27266 17.3731C4.685 17.9651 4.47423 18.8666 4.25781 20.1727L5.10932 20.3138ZM1.16957 17.2006C2.51653 17.4271 3.12035 17.6169 3.48188 17.9811C3.84422 18.3462 4.0329 18.9565 4.25781 20.3138L5.10932 20.1727C4.8929 18.8666 4.68213 17.9651 4.09448 17.3731C3.50602 16.7802 2.6093 16.5675 1.31273 16.3494L1.16957 17.2006ZM4.25781 13.2362C4.0329 14.5935 3.84422 15.2038 3.48188 15.5689C3.12035 15.9331 2.51653 16.1228 1.16957 16.3494L1.31273 17.2006C2.6093 16.9825 3.50602 16.7698 4.09448 16.1769C4.68213 15.5848 4.8929 14.6834 5.10932 13.3773L4.25781 13.2362ZM8.19757 16.3494C6.85061 16.1228 6.24679 15.9331 5.88525 15.5689C5.52292 15.2038 5.33424 14.5935 5.10932 13.2362L4.25781 13.3773C4.47423 14.6834 4.685 15.5848 5.27266 16.1769C5.86112 16.7698 6.75784 16.9825 8.0544 17.2006L8.19757 16.3494ZM18.3193 9.77122C15.3889 10.2603 13.5648 10.7181 12.3891 11.8936C11.2133 13.0693 10.7556 14.8931 10.2671 17.8236L11.1185 17.9655C11.6154 14.9842 12.0507 13.4526 12.9994 12.504C13.9481 11.5554 15.4801 11.1202 18.4614 10.6226L18.3193 9.77122ZM18.3892 10.6285H18.3904V9.76533H18.3892V10.6285ZM10.2659 2.57031C10.755 5.50076 11.2127 7.32483 12.3883 8.50058C13.5639 9.67637 15.3877 10.1341 18.3182 10.6226L18.4601 9.77121C15.4789 9.27423 13.9472 8.839 12.9986 7.8903C12.05 6.94155 11.6148 5.40956 11.1172 2.42822L10.2659 2.57031ZM3.06611 10.6226C5.99601 10.1341 7.8198 9.67636 8.99542 8.50058C10.171 7.32481 10.6287 5.50073 11.1172 2.57023L10.2659 2.4283C9.76887 5.40959 9.33365 6.94158 8.38506 7.8903C7.43649 8.83901 5.90483 9.27423 2.92415 9.77121L3.06611 10.6226ZM11.1184 17.8235C10.6293 14.893 10.1716 13.069 8.99603 11.8932C7.82041 10.7174 5.9966 10.2597 3.06609 9.77121L2.92417 10.6226C5.90546 11.1196 7.4371 11.5548 8.38567 12.5035C9.33428 13.4522 9.76948 14.9842 10.2671 17.9656L11.1184 17.8235Z" fill="url(#paint0_linear_20_2252)" fill-opacity="0.6" style="mix-blend-mode:overlay" mask="url(#path-1-outside-1_20_2252)"/>
<mask id="mask0_20_2252" style="mask-type:alpha" maskUnits="userSpaceOnUse" x="1" y="1" width="19" height="20">
<path fill-rule="evenodd" clip-rule="evenodd" d="M19.2924 4.2223C17.5272 4.5184 17.2872 4.76019 16.9933 6.53859C16.6994 4.76019 16.4594 4.5184 14.6943 4.2223C16.4594 3.92619 16.6994 3.6844 16.9933 1.90601C17.2872 3.6844 17.5272 3.92619 19.2924 4.2223ZM8.12599 16.775C5.48246 17.2197 5.1249 17.5799 4.68357 20.2433C4.24223 17.5799 3.88468 17.2197 1.24115 16.775C3.88468 16.3304 4.24223 15.9702 4.68357 13.3068C5.1249 15.9702 5.48246 16.3304 8.12599 16.775ZM10.6928 17.8945C11.6783 11.9827 12.4786 11.1836 18.3904 10.1969H18.3892C12.4774 9.2114 11.6783 8.41106 10.6915 2.49926C9.70604 8.41106 8.9057 9.2114 2.99513 10.1969C8.90692 11.1824 9.70604 11.9827 10.6928 17.8945Z" fill="#EE3838"/>
</mask>
<g mask="url(#mask0_20_2252)">
<circle cx="19.2939" cy="18.9819" r="13.4863" fill="url(#paint1_linear_20_2252)"/>
</g>
<defs>
<linearGradient id="paint0_linear_20_2252" x1="10.2668" y1="1.90601" x2="6.30006" y2="21.2459" gradientUnits="userSpaceOnUse">
<stop stop-opacity="0.3"/>
<stop offset="1"/>
</linearGradient>
<linearGradient id="paint1_linear_20_2252" x1="11.5239" y1="7.51804" x2="16.7191" y2="16.3566" gradientUnits="userSpaceOnUse">
<stop stop-color="#FFCDCD"/>
<stop offset="1" stop-color="white"/>
</linearGradient>
</defs>
</svg>
