<svg width="26" height="26" viewBox="0 0 26 26" fill="none" xmlns="http://www.w3.org/2000/svg">
<path d="M0.826904 6.60995L0.826904 16.8215L9.45265 21.927L18.0784 16.8215V6.60995L9.45265 1.50439L0.826904 6.60995ZM17.4623 6.73165L9.45265 11.4729L1.44303 6.73165L9.45265 1.99078L17.4623 6.73165ZM1.23765 7.09634L9.24728 11.8372V21.3194L1.23765 16.5781V7.09634ZM9.65803 21.3194V11.8372L17.6677 7.09634V16.5785L9.65803 21.3194Z" fill="#EF1515"/>
<path d="M0.826904 6.60995L0.577884 6.18924L0.338015 6.33121V6.60995H0.826904ZM0.826904 16.8215H0.338015V17.1002L0.577884 17.2422L0.826904 16.8215ZM9.45265 21.927L9.20363 22.3478L9.45265 22.4952L9.70167 22.3478L9.45265 21.927ZM18.0784 16.8215L18.3274 17.2422L18.5673 17.1002V16.8215H18.0784ZM18.0784 6.60995H18.5673V6.33121L18.3274 6.18924L18.0784 6.60995ZM9.45265 1.50439L9.70167 1.08368L9.45265 0.936285L9.20363 1.08368L9.45265 1.50439ZM17.4623 6.73165L17.7113 7.15236L18.4221 6.73163L17.7113 6.31094L17.4623 6.73165ZM9.45265 11.4729L9.20362 11.8937L9.45265 12.0411L9.70169 11.8937L9.45265 11.4729ZM1.44303 6.73165L1.19401 6.31094L0.48325 6.73163L1.19399 7.15236L1.44303 6.73165ZM9.45265 1.99078L9.70167 1.57006L9.45265 1.42267L9.20363 1.57006L9.45265 1.99078ZM1.23765 7.09634L1.48667 6.67562L0.748765 6.23885V7.09634H1.23765ZM9.24728 11.8372H9.73617V11.5585L9.4963 11.4165L9.24728 11.8372ZM9.24728 21.3194L8.99824 21.7401L9.73617 22.1769V21.3194H9.24728ZM1.23765 16.5781H0.748765V16.8568L0.988618 16.9988L1.23765 16.5781ZM9.65803 21.3194H9.16914V22.1769L9.90705 21.7401L9.65803 21.3194ZM9.65803 11.8372L9.40901 11.4165L9.16914 11.5585V11.8372H9.65803ZM17.6677 7.09634H18.1565V6.23885L17.4186 6.67562L17.6677 7.09634ZM17.6677 16.5785L17.9167 16.9992L18.1565 16.8572V16.5785H17.6677ZM0.338015 6.60995L0.338015 16.8215H1.31579V6.60995H0.338015ZM0.577884 17.2422L9.20363 22.3478L9.70167 21.5063L1.07592 16.4008L0.577884 17.2422ZM9.70167 22.3478L18.3274 17.2422L17.8294 16.4008L9.20363 21.5063L9.70167 22.3478ZM18.5673 16.8215V6.60995H17.5895V16.8215H18.5673ZM18.3274 6.18924L9.70167 1.08368L9.20363 1.92511L17.8294 7.03067L18.3274 6.18924ZM9.20363 1.08368L0.577884 6.18924L1.07592 7.03067L9.70167 1.92511L9.20363 1.08368ZM17.2132 6.31095L9.20362 11.0522L9.70169 11.8937L17.7113 7.15236L17.2132 6.31095ZM9.70169 11.0522L1.69207 6.31095L1.19399 7.15236L9.20362 11.8937L9.70169 11.0522ZM1.69205 7.15237L9.70167 2.41149L9.20363 1.57006L1.19401 6.31094L1.69205 7.15237ZM9.20363 2.41149L17.2133 7.15237L17.7113 6.31094L9.70167 1.57006L9.20363 2.41149ZM0.988634 7.51705L8.99826 12.2579L9.4963 11.4165L1.48667 6.67562L0.988634 7.51705ZM8.75839 11.8372V21.3194H9.73617V11.8372H8.75839ZM9.49631 20.8987L1.48669 16.1574L0.988618 16.9988L8.99824 21.7401L9.49631 20.8987ZM1.72654 16.5781V7.09634H0.748765L0.748765 16.5781H1.72654ZM10.1469 21.3194V11.8372H9.16914V21.3194H10.1469ZM9.90705 12.2579L17.9167 7.51705L17.4186 6.67562L9.40901 11.4165L9.90705 12.2579ZM17.1788 7.09634V16.5785H18.1565V7.09634H17.1788ZM17.4186 16.1578L9.40901 20.8987L9.90705 21.7401L17.9167 16.9992L17.4186 16.1578Z" fill="white"/>
<path d="M18.1407 10.1216L12.5832 13.7687L11.8885 21.0629L18.1407 24.71L24.3929 21.0629L23.6982 13.7687L18.1407 10.1216Z" fill="#EF1515"/>
<path d="M12.0485 13.7776V21.4928L18.3608 25.3502L24.6731 21.4928V13.7776L18.3608 9.92017L12.0485 13.7776ZM24.2222 13.8696L18.3608 17.4518L12.4994 13.8696L18.3608 10.2876L24.2222 13.8696ZM12.3491 14.1451L18.2105 17.727V24.8911L12.3491 21.3089V14.1451ZM18.5111 24.8911V17.727L24.3725 14.1451V21.3092L18.5111 24.8911Z" fill="#EF1515"/>
<path d="M12.0485 13.7776L11.7936 13.3604L11.5596 13.5034V13.7776H12.0485ZM12.0485 21.4928H11.5596V21.767L11.7936 21.91L12.0485 21.4928ZM18.3608 25.3502L18.1059 25.7674L18.3608 25.9232L18.6158 25.7674L18.3608 25.3502ZM24.6731 21.4928L24.9281 21.91L25.162 21.767V21.4928H24.6731ZM24.6731 13.7776H25.162V13.5034L24.9281 13.3604L24.6731 13.7776ZM18.3608 9.92017L18.6158 9.503L18.3608 9.34722L18.1059 9.503L18.3608 9.92017ZM24.2222 13.8696L24.4772 14.2867L25.1598 13.8695L24.4772 13.4524L24.2222 13.8696ZM18.3608 17.4518L18.1059 17.8689L18.3608 18.0247L18.6158 17.8689L18.3608 17.4518ZM12.4994 13.8696L12.2445 13.4524L11.5619 13.8695L12.2445 14.2867L12.4994 13.8696ZM18.3608 10.2876L18.6158 9.87048L18.3608 9.7147L18.1059 9.87048L18.3608 10.2876ZM12.3491 14.1451L12.604 13.7279L11.8602 13.2734V14.1451H12.3491ZM18.2105 17.727H18.6994V17.4528L18.4655 17.3098L18.2105 17.727ZM18.2105 24.8911L17.9556 25.3083L18.6994 25.7629V24.8911H18.2105ZM12.3491 21.3089H11.8602V21.5831L12.0942 21.7261L12.3491 21.3089ZM18.5111 24.8911H18.0222V25.7628L18.766 25.3083L18.5111 24.8911ZM18.5111 17.727L18.2562 17.3098L18.0222 17.4528V17.727H18.5111ZM24.3725 14.1451H24.8614V13.2734L24.1176 13.7279L24.3725 14.1451ZM24.3725 21.3092L24.6275 21.7264L24.8614 21.5834V21.3092H24.3725ZM11.5596 13.7776V21.4928H12.5374V13.7776H11.5596ZM11.7936 21.91L18.1059 25.7674L18.6158 24.9331L12.3035 21.0756L11.7936 21.91ZM18.6158 25.7674L24.9281 21.91L24.4182 21.0756L18.1059 24.9331L18.6158 25.7674ZM25.162 21.4928V13.7776H24.1842V21.4928H25.162ZM24.9281 13.3604L18.6158 9.503L18.1059 10.3373L24.4182 14.1948L24.9281 13.3604ZM18.1059 9.503L11.7936 13.3604L12.3035 14.1948L18.6158 10.3373L18.1059 9.503ZM23.9673 13.4524L18.1059 17.0346L18.6158 17.8689L24.4772 14.2867L23.9673 13.4524ZM18.6158 17.0346L12.7543 13.4524L12.2445 14.2867L18.1059 17.8689L18.6158 17.0346ZM12.7543 14.2867L18.6158 10.7048L18.1059 9.87048L12.2445 13.4524L12.7543 14.2867ZM18.1059 10.7048L23.9673 14.2867L24.4772 13.4524L18.6158 9.87048L18.1059 10.7048ZM12.0942 14.5622L17.9556 18.1442L18.4655 17.3098L12.604 13.7279L12.0942 14.5622ZM17.7216 17.727V24.8911H18.6994V17.727H17.7216ZM18.4655 24.474L12.6041 20.8917L12.0942 21.7261L17.9556 25.3083L18.4655 24.474ZM12.838 21.3089V14.1451H11.8602V21.3089H12.838ZM19 24.8911V17.727H18.0222V24.8911H19ZM18.766 18.1442L24.6275 14.5622L24.1176 13.7279L18.2562 17.3098L18.766 18.1442ZM23.8837 14.1451V21.3092H24.8614V14.1451H23.8837ZM24.1176 20.8921L18.2562 24.474L18.766 25.3083L24.6275 21.7264L24.1176 20.8921Z" fill="white"/>
</svg>
