<svg width="31" height="31" viewBox="0 0 31 31" fill="none" xmlns="http://www.w3.org/2000/svg">
<rect x="0.5" y="0.5" width="30" height="30" rx="5" fill="#EF1515"/>
<path d="M4.32471 9.10897V18.6823L12.4113 23.4687L20.498 18.6823V9.10897L12.4113 4.32251L4.32471 9.10897ZM19.9204 9.22306L12.4113 13.668L4.90232 9.22306L12.4113 4.77849L19.9204 9.22306ZM4.70978 9.56495L12.2188 14.0095V22.8991L4.70978 18.4541V9.56495ZM12.6039 22.8991V14.0095L20.1129 9.56495V18.4545L12.6039 22.8991Z" fill="#EF1515"/>
<path d="M4.32471 9.10897L4.09125 8.71455L3.86637 8.84765V9.10897H4.32471ZM4.32471 18.6823H3.86637V18.9436L4.09125 19.0767L4.32471 18.6823ZM12.4113 23.4687L12.1779 23.8632L12.4113 24.0013L12.6448 23.8632L12.4113 23.4687ZM20.498 18.6823L20.7314 19.0767L20.9563 18.9436V18.6823H20.498ZM20.498 9.10897H20.9563V8.84765L20.7314 8.71455L20.498 9.10897ZM12.4113 4.32251L12.6448 3.92809L12.4113 3.78991L12.1779 3.92809L12.4113 4.32251ZM19.9204 9.22306L20.1538 9.61748L20.8202 9.22305L20.1538 8.82864L19.9204 9.22306ZM12.4113 13.668L12.1779 14.0624L12.4113 14.2006L12.6448 14.0624L12.4113 13.668ZM4.90232 9.22306L4.66887 8.82864L4.00253 9.22305L4.66885 9.61748L4.90232 9.22306ZM12.4113 4.77849L12.6448 4.38407L12.4113 4.24589L12.1779 4.38407L12.4113 4.77849ZM4.70978 9.56495L4.94324 9.17053L4.25145 8.76107V9.56495H4.70978ZM12.2188 14.0095H12.6771V13.7482L12.4523 13.6151L12.2188 14.0095ZM12.2188 22.8991L11.9853 23.2935L12.6771 23.703V22.8991H12.2188ZM4.70978 18.4541H4.25145V18.7154L4.47631 18.8485L4.70978 18.4541ZM12.6039 22.8991H12.1455V23.7029L12.8373 23.2935L12.6039 22.8991ZM12.6039 14.0095L12.3704 13.6151L12.1455 13.7482V14.0095H12.6039ZM20.1129 9.56495H20.5712V8.76107L19.8794 9.17053L20.1129 9.56495ZM20.1129 18.4545L20.3464 18.8489L20.5712 18.7158V18.4545H20.1129ZM3.86637 9.10897V18.6823H4.78304V9.10897H3.86637ZM4.09125 19.0767L12.1779 23.8632L12.6448 23.0743L4.55816 18.2879L4.09125 19.0767ZM12.6448 23.8632L20.7314 19.0767L20.2645 18.2879L12.1779 23.0743L12.6448 23.8632ZM20.9563 18.6823V9.10897H20.0396V18.6823H20.9563ZM20.7314 8.71455L12.6448 3.92809L12.1779 4.71693L20.2645 9.50339L20.7314 8.71455ZM12.1779 3.92809L4.09125 8.71455L4.55816 9.50339L12.6448 4.71693L12.1779 3.92809ZM19.6869 8.82865L12.1779 13.2736L12.6448 14.0624L20.1538 9.61748L19.6869 8.82865ZM12.6448 13.2736L5.1358 8.82865L4.66885 9.61748L12.1779 14.0624L12.6448 13.2736ZM5.13578 9.61748L12.6448 5.17291L12.1779 4.38407L4.66887 8.82864L5.13578 9.61748ZM12.1779 5.17291L19.6869 9.61748L20.1538 8.82864L12.6448 4.38407L12.1779 5.17291ZM4.47633 9.95937L11.9853 14.4039L12.4523 13.6151L4.94324 9.17053L4.47633 9.95937ZM11.7605 14.0095V22.8991H12.6771V14.0095H11.7605ZM12.4523 22.5046L4.94326 18.0597L4.47631 18.8485L11.9853 23.2935L12.4523 22.5046ZM5.16812 18.4541V9.56495H4.25145V18.4541H5.16812ZM13.0622 22.8991V14.0095H12.1455V22.8991H13.0622ZM12.8373 14.4039L20.3464 9.95937L19.8794 9.17053L12.3704 13.6151L12.8373 14.4039ZM19.6546 9.56495V18.4545H20.5712V9.56495H19.6546ZM19.8794 18.0601L12.3704 22.5046L12.8373 23.2935L20.3464 18.8489L19.8794 18.0601Z" fill="white"/>
<path d="M20.5564 12.4005L15.3463 15.8197L14.695 22.658L20.5564 26.0772L26.4179 22.658L25.7666 15.8197L20.5564 12.4005Z" fill="#EF1515"/>
<path d="M14.8397 15.8281V23.0611L20.7574 26.6775L26.6752 23.0611V15.8281L20.7574 12.2118L14.8397 15.8281ZM26.2525 15.9143L20.7574 19.2727L15.2624 15.9143L20.7574 12.5563L26.2525 15.9143ZM15.1215 16.1727L20.6165 19.5307V26.2471L15.1215 22.8887V16.1727ZM20.8983 26.2471V19.5307L26.3934 16.1727V22.889L20.8983 26.2471Z" fill="#EF1515"/>
<path d="M14.8397 15.8281L14.6007 15.437L14.3813 15.5711V15.8281H14.8397ZM14.8397 23.0611H14.3813V23.3182L14.6007 23.4522L14.8397 23.0611ZM20.7574 26.6775L20.5184 27.0686L20.7574 27.2146L20.9964 27.0686L20.7574 26.6775ZM26.6752 23.0611L26.9142 23.4522L27.1336 23.3182V23.0611H26.6752ZM26.6752 15.8281H27.1336V15.5711L26.9142 15.437L26.6752 15.8281ZM20.7574 12.2118L20.9964 11.8207L20.7574 11.6747L20.5184 11.8207L20.7574 12.2118ZM26.2525 15.9143L26.4915 16.3054L27.1315 15.9143L26.4915 15.5233L26.2525 15.9143ZM20.7574 19.2727L20.5184 19.6638L20.7574 19.8098L20.9965 19.6638L20.7574 19.2727ZM15.2624 15.9143L15.0234 15.5233L14.3834 15.9143L15.0233 16.3054L15.2624 15.9143ZM20.7574 12.5563L20.9964 12.1652L20.7574 12.0192L20.5184 12.1652L20.7574 12.5563ZM15.1215 16.1727L15.3605 15.7816L14.6631 15.3554V16.1727H15.1215ZM20.6165 19.5307H21.0749V19.2736L20.8555 19.1396L20.6165 19.5307ZM20.6165 26.2471L20.3775 26.6381L21.0749 27.0643V26.2471H20.6165ZM15.1215 22.8887H14.6631V23.1458L14.8824 23.2798L15.1215 22.8887ZM20.8983 26.2471H20.44V27.0643L21.1373 26.6382L20.8983 26.2471ZM20.8983 19.5307L20.6593 19.1396L20.44 19.2736V19.5307H20.8983ZM26.3934 16.1727H26.8518V15.3554L26.1544 15.7816L26.3934 16.1727ZM26.3934 22.889L26.6324 23.2801L26.8518 23.1461V22.889H26.3934ZM14.3813 15.8281V23.0611H15.298V15.8281H14.3813ZM14.6007 23.4522L20.5184 27.0686L20.9964 26.2864L15.0787 22.67L14.6007 23.4522ZM20.9964 27.0686L26.9142 23.4522L26.4362 22.67L20.5184 26.2864L20.9964 27.0686ZM27.1336 23.0611V15.8281H26.2169V23.0611H27.1336ZM26.9142 15.437L20.9964 11.8207L20.5184 12.6029L26.4362 16.2192L26.9142 15.437ZM20.5184 11.8207L14.6007 15.437L15.0787 16.2192L20.9964 12.6029L20.5184 11.8207ZM26.0135 15.5233L20.5184 18.8816L20.9965 19.6638L26.4915 16.3054L26.0135 15.5233ZM20.9965 18.8816L15.5014 15.5233L15.0233 16.3054L20.5184 19.6638L20.9965 18.8816ZM15.5014 16.3054L20.9964 12.9474L20.5184 12.1652L15.0234 15.5233L15.5014 16.3054ZM20.5184 12.9474L26.0135 16.3054L26.4915 15.5233L20.9964 12.1652L20.5184 12.9474ZM14.8825 16.5637L20.3775 19.9218L20.8555 19.1396L15.3605 15.7816L14.8825 16.5637ZM20.1582 19.5307V26.2471H21.0749V19.5307H20.1582ZM20.8556 25.856L15.3605 22.4976L14.8824 23.2798L20.3775 26.6381L20.8556 25.856ZM15.5798 22.8887V16.1727H14.6631V22.8887H15.5798ZM21.3567 26.2471V19.5307H20.44V26.2471H21.3567ZM21.1373 19.9218L26.6324 16.5637L26.1544 15.7816L20.6593 19.1396L21.1373 19.9218ZM25.9351 16.1727V22.889H26.8518V16.1727H25.9351ZM26.1544 22.4979L20.6593 25.856L21.1373 26.6382L26.6324 23.2801L26.1544 22.4979Z" fill="white"/>
</svg>
