<svg width="1440" height="446" viewBox="0 0 1440 446" fill="none" xmlns="http://www.w3.org/2000/svg">
<g clip-path="url(#clip0_2017_3465)">
<path d="M43.0364 0.40332H25.6317H8.23071L0.372314 10.0999L25.6317 43.8666L50.8911 10.0999L43.0364 0.40332Z" stroke="#FFF9EF" stroke-width="1.5" stroke-linecap="round" stroke-linejoin="round"/>
<path d="M42.3165 348.308H24.9117H7.51074L-0.347656 358.004L24.9117 391.771L50.1711 358.004L42.3165 348.308Z" stroke="#FFF9EF" stroke-width="1.5" stroke-linecap="round" stroke-linejoin="round"/>
<path d="M42.7486 174.355H25.3439H7.94287L0.0844727 184.052L25.3439 217.819L50.6032 184.052L42.7486 174.355Z" stroke="#FFF9EF" stroke-width="1.5" stroke-linecap="round" stroke-linejoin="round"/>
<path d="M448.541 0.40332H431.136H413.735L405.876 10.0999L431.136 43.8666L456.395 10.0999L448.541 0.40332Z" stroke="#FFF9EF" stroke-width="1.5" stroke-linecap="round" stroke-linejoin="round"/>
<path d="M447.82 348.308H430.416H413.015L405.156 358.004L430.416 391.771L455.675 358.004L447.82 348.308Z" stroke="#FFF9EF" stroke-width="1.5" stroke-linecap="round" stroke-linejoin="round"/>
<path d="M448.252 174.355H430.848H413.447L405.588 184.052L430.848 217.819L456.107 184.052L448.252 174.355Z" stroke="#FFF9EF" stroke-width="1.5" stroke-linecap="round" stroke-linejoin="round"/>
<path d="M43.0364 87.3789H25.6317H8.23071L0.372314 97.0755L25.6317 130.842L50.8911 97.0755L43.0364 87.3789Z" stroke="#FFF9EF" stroke-width="1.5" stroke-linecap="round" stroke-linejoin="round"/>
<path d="M42.3165 435.283H24.9117H7.51074L-0.347656 444.98L24.9117 478.746L50.1711 444.98L42.3165 435.283Z" stroke="#FFF9EF" stroke-width="1.5" stroke-linecap="round" stroke-linejoin="round"/>
<path d="M42.7486 261.331H25.3439H7.94287L0.0844727 271.028L25.3439 304.794L50.6032 271.028L42.7486 261.331Z" stroke="#FFF9EF" stroke-width="1.5" stroke-linecap="round" stroke-linejoin="round"/>
<path d="M448.541 87.3789H431.136H413.735L405.876 97.0755L431.136 130.842L456.395 97.0755L448.541 87.3789Z" stroke="#FFF9EF" stroke-width="1.5" stroke-linecap="round" stroke-linejoin="round"/>
<path d="M447.82 435.283H430.416H413.015L405.156 444.98L430.416 478.746L455.675 444.98L447.82 435.283Z" stroke="#FFF9EF" stroke-width="1.5" stroke-linecap="round" stroke-linejoin="round"/>
<path d="M448.252 261.331H430.848H413.447L405.588 271.028L430.848 304.794L456.107 271.028L448.252 261.331Z" stroke="#FFF9EF" stroke-width="1.5" stroke-linecap="round" stroke-linejoin="round"/>
<path d="M245.788 0.40332H228.384H210.983L203.124 10.0999L228.384 43.8666L253.643 10.0999L245.788 0.40332Z" stroke="#FFF9EF" stroke-width="1.5" stroke-linecap="round" stroke-linejoin="round"/>
<path d="M245.068 348.308H227.664H210.263L202.404 358.004L227.664 391.771L252.923 358.004L245.068 348.308Z" stroke="#FFF9EF" stroke-width="1.5" stroke-linecap="round" stroke-linejoin="round"/>
<path d="M245.501 174.355H228.096H210.695L202.836 184.052L228.096 217.819L253.355 184.052L245.501 174.355Z" stroke="#FFF9EF" stroke-width="1.5" stroke-linecap="round" stroke-linejoin="round"/>
<path d="M651.293 0.40332H633.888H616.487L608.628 10.0999L633.888 43.8666L659.147 10.0999L651.293 0.40332Z" stroke="#FFF9EF" stroke-width="1.5" stroke-linecap="round" stroke-linejoin="round"/>
<path d="M650.572 348.308H633.168H615.767L607.908 358.004L633.168 391.771L658.427 358.004L650.572 348.308Z" stroke="#FFF9EF" stroke-width="1.5" stroke-linecap="round" stroke-linejoin="round"/>
<path d="M651.004 174.355H633.6H616.199L608.34 184.052L633.6 217.819L658.859 184.052L651.004 174.355Z" stroke="#FFF9EF" stroke-width="1.5" stroke-linecap="round" stroke-linejoin="round"/>
<path d="M245.788 87.3789H228.384H210.983L203.124 97.0755L228.384 130.842L253.643 97.0755L245.788 87.3789Z" stroke="#FFF9EF" stroke-width="1.5" stroke-linecap="round" stroke-linejoin="round"/>
<path d="M245.068 435.283H227.664H210.263L202.404 444.98L227.664 478.746L252.923 444.98L245.068 435.283Z" stroke="#FFF9EF" stroke-width="1.5" stroke-linecap="round" stroke-linejoin="round"/>
<path d="M245.501 261.331H228.096H210.695L202.836 271.028L228.096 304.794L253.355 271.028L245.501 261.331Z" stroke="#FFF9EF" stroke-width="1.5" stroke-linecap="round" stroke-linejoin="round"/>
<path d="M651.293 87.3789H633.888H616.487L608.628 97.0755L633.888 130.842L659.147 97.0755L651.293 87.3789Z" stroke="#FFF9EF" stroke-width="1.5" stroke-linecap="round" stroke-linejoin="round"/>
<path d="M650.572 435.283H633.168H615.767L607.908 444.98L633.168 478.746L658.427 444.98L650.572 435.283Z" stroke="#FFF9EF" stroke-width="1.5" stroke-linecap="round" stroke-linejoin="round"/>
<path d="M651.004 261.331H633.6H616.199L608.34 271.028L633.6 304.794L658.859 271.028L651.004 261.331Z" stroke="#FFF9EF" stroke-width="1.5" stroke-linecap="round" stroke-linejoin="round"/>
<path d="M144.412 0.40332H127.008H109.607L101.748 10.0999L127.008 43.8666L152.267 10.0999L144.412 0.40332Z" stroke="#FFF9EF" stroke-width="1.5" stroke-linecap="round" stroke-linejoin="round"/>
<path d="M143.692 348.308H126.288H108.887L101.028 358.004L126.288 391.771L151.547 358.004L143.692 348.308Z" stroke="#FFF9EF" stroke-width="1.5" stroke-linecap="round" stroke-linejoin="round"/>
<path d="M144.125 174.355H126.72H109.319L101.46 184.052L126.72 217.819L151.979 184.052L144.125 174.355Z" stroke="#FFF9EF" stroke-width="1.5" stroke-linecap="round" stroke-linejoin="round"/>
<path d="M549.917 0.40332H532.512H515.111L507.252 10.0999L532.512 43.8666L557.771 10.0999L549.917 0.40332Z" stroke="#FFF9EF" stroke-width="1.5" stroke-linecap="round" stroke-linejoin="round"/>
<path d="M549.196 348.308H531.792H514.391L506.532 358.004L531.792 391.771L557.051 358.004L549.196 348.308Z" stroke="#FFF9EF" stroke-width="1.5" stroke-linecap="round" stroke-linejoin="round"/>
<path d="M549.628 174.355H532.224H514.823L506.964 184.052L532.224 217.819L557.483 184.052L549.628 174.355Z" stroke="#FFF9EF" stroke-width="1.5" stroke-linecap="round" stroke-linejoin="round"/>
<path d="M144.412 87.3789H127.008H109.607L101.748 97.0755L127.008 130.842L152.267 97.0755L144.412 87.3789Z" stroke="#FFF9EF" stroke-width="1.5" stroke-linecap="round" stroke-linejoin="round"/>
<path d="M143.692 435.283H126.288H108.887L101.028 444.98L126.288 478.746L151.547 444.98L143.692 435.283Z" stroke="#FFF9EF" stroke-width="1.5" stroke-linecap="round" stroke-linejoin="round"/>
<path d="M144.125 261.331H126.72H109.319L101.46 271.028L126.72 304.794L151.979 271.028L144.125 261.331Z" stroke="#FFF9EF" stroke-width="1.5" stroke-linecap="round" stroke-linejoin="round"/>
<path d="M549.917 87.3789H532.512H515.111L507.252 97.0755L532.512 130.842L557.771 97.0755L549.917 87.3789Z" stroke="#FFF9EF" stroke-width="1.5" stroke-linecap="round" stroke-linejoin="round"/>
<path d="M549.196 435.283H531.792H514.391L506.532 444.98L531.792 478.746L557.051 444.98L549.196 435.283Z" stroke="#FFF9EF" stroke-width="1.5" stroke-linecap="round" stroke-linejoin="round"/>
<path d="M549.628 261.331H532.224H514.823L506.964 271.028L532.224 304.794L557.483 271.028L549.628 261.331Z" stroke="#FFF9EF" stroke-width="1.5" stroke-linecap="round" stroke-linejoin="round"/>
<path d="M347.165 0.40332H329.76H312.359L304.5 10.0999L329.76 43.8666L355.019 10.0999L347.165 0.40332Z" stroke="#FFF9EF" stroke-width="1.5" stroke-linecap="round" stroke-linejoin="round"/>
<path d="M346.444 348.308H329.04H311.639L303.78 358.004L329.04 391.771L354.299 358.004L346.444 348.308Z" stroke="#FFF9EF" stroke-width="1.5" stroke-linecap="round" stroke-linejoin="round"/>
<path d="M346.877 174.355H329.472H312.071L304.212 184.052L329.472 217.819L354.731 184.052L346.877 174.355Z" stroke="#FFF9EF" stroke-width="1.5" stroke-linecap="round" stroke-linejoin="round"/>
<path d="M752.669 0.40332H735.264H717.863L710.004 10.0999L735.264 43.8666L760.523 10.0999L752.669 0.40332Z" stroke="#FFF9EF" stroke-width="1.5" stroke-linecap="round" stroke-linejoin="round"/>
<path d="M751.948 348.308H734.544H717.143L709.284 358.004L734.544 391.771L759.803 358.004L751.948 348.308Z" stroke="#FFF9EF" stroke-width="1.5" stroke-linecap="round" stroke-linejoin="round"/>
<path d="M752.38 174.355H734.976H717.575L709.716 184.052L734.976 217.819L760.235 184.052L752.38 174.355Z" stroke="#FFF9EF" stroke-width="1.5" stroke-linecap="round" stroke-linejoin="round"/>
<path d="M904.588 0.40332H887.184H869.783L861.924 10.0999L887.184 43.8666L912.443 10.0999L904.588 0.40332Z" stroke="#FFF9EF" stroke-width="1.5" stroke-linecap="round" stroke-linejoin="round"/>
<path d="M903.868 348.308H886.463H869.062L861.204 358.004L886.463 391.771L911.723 358.004L903.868 348.308Z" stroke="#FFF9EF" stroke-width="1.5" stroke-linecap="round" stroke-linejoin="round"/>
<path d="M904.3 174.355H886.896H869.495L861.636 184.052L886.896 217.819L912.155 184.052L904.3 174.355Z" stroke="#FFF9EF" stroke-width="1.5" stroke-linecap="round" stroke-linejoin="round"/>
<path d="M1208.72 0.40332H1191.31H1173.91L1166.05 10.0999L1191.31 43.8666L1216.57 10.0999L1208.72 0.40332Z" stroke="#FFF9EF" stroke-width="1.5" stroke-linecap="round" stroke-linejoin="round"/>
<path d="M1208 348.308H1190.59H1173.19L1165.33 358.004L1190.59 391.771L1215.85 358.004L1208 348.308Z" stroke="#FFF9EF" stroke-width="1.5" stroke-linecap="round" stroke-linejoin="round"/>
<path d="M1208.43 174.355H1191.02H1173.62L1165.76 184.052L1191.02 217.819L1216.28 184.052L1208.43 174.355Z" stroke="#FFF9EF" stroke-width="1.5" stroke-linecap="round" stroke-linejoin="round"/>
<path d="M1107.34 0.40332H1089.94H1072.53L1064.68 10.0999L1089.94 43.8666L1115.2 10.0999L1107.34 0.40332Z" stroke="#FFF9EF" stroke-width="1.5" stroke-linecap="round" stroke-linejoin="round"/>
<path d="M1106.62 348.308H1089.22H1071.81L1063.96 358.004L1089.22 391.771L1114.48 358.004L1106.62 348.308Z" stroke="#FFF9EF" stroke-width="1.5" stroke-linecap="round" stroke-linejoin="round"/>
<path d="M1107.05 174.355H1089.65H1072.25L1064.39 184.052L1089.65 217.819L1114.91 184.052L1107.05 174.355Z" stroke="#FFF9EF" stroke-width="1.5" stroke-linecap="round" stroke-linejoin="round"/>
<path d="M1411.47 0.40332H1394.06H1376.66L1368.8 10.0999L1394.06 43.8666L1419.32 10.0999L1411.47 0.40332Z" stroke="#FFF9EF" stroke-width="1.5" stroke-linecap="round" stroke-linejoin="round"/>
<path d="M1410.75 348.308H1393.34H1375.94L1368.08 358.004L1393.34 391.771L1418.6 358.004L1410.75 348.308Z" stroke="#FFF9EF" stroke-width="1.5" stroke-linecap="round" stroke-linejoin="round"/>
<path d="M1411.18 174.355H1393.78H1376.37L1368.52 184.052L1393.78 217.819L1419.04 184.052L1411.18 174.355Z" stroke="#FFF9EF" stroke-width="1.5" stroke-linecap="round" stroke-linejoin="round"/>
<path d="M347.165 87.3789H329.76H312.359L304.5 97.0755L329.76 130.842L355.019 97.0755L347.165 87.3789Z" stroke="#FFF9EF" stroke-width="1.5" stroke-linecap="round" stroke-linejoin="round"/>
<path d="M346.444 435.283H329.04H311.639L303.78 444.98L329.04 478.746L354.299 444.98L346.444 435.283Z" stroke="#FFF9EF" stroke-width="1.5" stroke-linecap="round" stroke-linejoin="round"/>
<path d="M346.877 261.331H329.472H312.071L304.212 271.028L329.472 304.794L354.731 271.028L346.877 261.331Z" stroke="#FFF9EF" stroke-width="1.5" stroke-linecap="round" stroke-linejoin="round"/>
<path d="M752.669 87.3789H735.264H717.863L710.004 97.0755L735.264 130.842L760.523 97.0755L752.669 87.3789Z" stroke="#FFF9EF" stroke-width="1.5" stroke-linecap="round" stroke-linejoin="round"/>
<path d="M751.948 435.283H734.544H717.143L709.284 444.98L734.544 478.746L759.803 444.98L751.948 435.283Z" stroke="#FFF9EF" stroke-width="1.5" stroke-linecap="round" stroke-linejoin="round"/>
<path d="M752.38 261.331H734.976H717.575L709.716 271.028L734.976 304.794L760.235 271.028L752.38 261.331Z" stroke="#FFF9EF" stroke-width="1.5" stroke-linecap="round" stroke-linejoin="round"/>
<path d="M904.588 87.3789H887.184H869.783L861.924 97.0755L887.184 130.842L912.443 97.0755L904.588 87.3789Z" stroke="#FFF9EF" stroke-width="1.5" stroke-linecap="round" stroke-linejoin="round"/>
<path d="M903.868 435.283H886.463H869.062L861.204 444.98L886.463 478.746L911.723 444.98L903.868 435.283Z" stroke="#FFF9EF" stroke-width="1.5" stroke-linecap="round" stroke-linejoin="round"/>
<path d="M904.3 261.331H886.896H869.495L861.636 271.028L886.896 304.794L912.155 271.028L904.3 261.331Z" stroke="#FFF9EF" stroke-width="1.5" stroke-linecap="round" stroke-linejoin="round"/>
<path d="M1208.72 87.3789H1191.31H1173.91L1166.05 97.0755L1191.31 130.842L1216.57 97.0755L1208.72 87.3789Z" stroke="#FFF9EF" stroke-width="1.5" stroke-linecap="round" stroke-linejoin="round"/>
<path d="M1208 435.283H1190.59H1173.19L1165.33 444.98L1190.59 478.746L1215.85 444.98L1208 435.283Z" stroke="#FFF9EF" stroke-width="1.5" stroke-linecap="round" stroke-linejoin="round"/>
<path d="M1208.43 261.331H1191.02H1173.62L1165.76 271.028L1191.02 304.794L1216.28 271.028L1208.43 261.331Z" stroke="#FFF9EF" stroke-width="1.5" stroke-linecap="round" stroke-linejoin="round"/>
<path d="M1107.34 87.3789H1089.94H1072.53L1064.68 97.0755L1089.94 130.842L1115.2 97.0755L1107.34 87.3789Z" stroke="#FFF9EF" stroke-width="1.5" stroke-linecap="round" stroke-linejoin="round"/>
<path d="M1106.62 435.283H1089.22H1071.81L1063.96 444.98L1089.22 478.746L1114.48 444.98L1106.62 435.283Z" stroke="#FFF9EF" stroke-width="1.5" stroke-linecap="round" stroke-linejoin="round"/>
<path d="M1107.05 261.331H1089.65H1072.25L1064.39 271.028L1089.65 304.794L1114.91 271.028L1107.05 261.331Z" stroke="#FFF9EF" stroke-width="1.5" stroke-linecap="round" stroke-linejoin="round"/>
<path d="M1411.47 87.3789H1394.06H1376.66L1368.8 97.0755L1394.06 130.842L1419.32 97.0755L1411.47 87.3789Z" stroke="#FFF9EF" stroke-width="1.5" stroke-linecap="round" stroke-linejoin="round"/>
<path d="M1410.75 435.283H1393.34H1375.94L1368.08 444.98L1393.34 478.746L1418.6 444.98L1410.75 435.283Z" stroke="#FFF9EF" stroke-width="1.5" stroke-linecap="round" stroke-linejoin="round"/>
<path d="M1411.18 261.331H1393.78H1376.37L1368.52 271.028L1393.78 304.794L1419.04 271.028L1411.18 261.331Z" stroke="#FFF9EF" stroke-width="1.5" stroke-linecap="round" stroke-linejoin="round"/>
<path d="M160.062 87.3545H177.467H194.868L202.727 77.6579L177.467 43.8912L152.208 77.6579L160.062 87.3545Z" stroke="#FFF9EF" stroke-width="1.5" stroke-linecap="round" stroke-linejoin="round"/>
<path d="M159.342 435.259H176.747H194.148L202.007 425.562L176.747 391.796L151.488 425.562L159.342 435.259Z" stroke="#FFF9EF" stroke-width="1.5" stroke-linecap="round" stroke-linejoin="round"/>
<path d="M159.775 261.307H177.179H194.58L202.439 251.61L177.179 217.843L151.92 251.61L159.775 261.307Z" stroke="#FFF9EF" stroke-width="1.5" stroke-linecap="round" stroke-linejoin="round"/>
<path d="M565.566 87.3545H582.971H600.372L608.23 77.6579L582.971 43.8912L557.712 77.6579L565.566 87.3545Z" stroke="#FFF9EF" stroke-width="1.5" stroke-linecap="round" stroke-linejoin="round"/>
<path d="M564.847 435.259H582.251H599.652L607.511 425.562L582.251 391.796L556.992 425.562L564.847 435.259Z" stroke="#FFF9EF" stroke-width="1.5" stroke-linecap="round" stroke-linejoin="round"/>
<path d="M565.279 261.307H582.683H600.084L607.943 251.61L582.683 217.843L557.424 251.61L565.279 261.307Z" stroke="#FFF9EF" stroke-width="1.5" stroke-linecap="round" stroke-linejoin="round"/>
<path d="M160.062 174.331H177.467H194.868L202.727 164.634L177.467 130.868L152.208 164.634L160.062 174.331Z" stroke="#FFF9EF" stroke-width="1.5" stroke-linecap="round" stroke-linejoin="round"/>
<path d="M159.775 348.282H177.179H194.58L202.439 338.586L177.179 304.819L151.92 338.586L159.775 348.282Z" stroke="#FFF9EF" stroke-width="1.5" stroke-linecap="round" stroke-linejoin="round"/>
<path d="M565.566 174.331H582.971H600.372L608.23 164.634L582.971 130.868L557.712 164.634L565.566 174.331Z" stroke="#FFF9EF" stroke-width="1.5" stroke-linecap="round" stroke-linejoin="round"/>
<path d="M565.279 348.282H582.683H600.084L607.943 338.586L582.683 304.819L557.424 338.586L565.279 348.282Z" stroke="#FFF9EF" stroke-width="1.5" stroke-linecap="round" stroke-linejoin="round"/>
<path d="M362.814 87.3545H380.219H397.62L405.479 77.6579L380.219 43.8912L354.96 77.6579L362.814 87.3545Z" stroke="#FFF9EF" stroke-width="1.5" stroke-linecap="round" stroke-linejoin="round"/>
<path d="M362.095 435.259H379.499H396.9L404.759 425.562L379.499 391.796L354.24 425.562L362.095 435.259Z" stroke="#FFF9EF" stroke-width="1.5" stroke-linecap="round" stroke-linejoin="round"/>
<path d="M362.526 261.307H379.931H397.332L405.19 251.61L379.931 217.843L354.672 251.61L362.526 261.307Z" stroke="#FFF9EF" stroke-width="1.5" stroke-linecap="round" stroke-linejoin="round"/>
<path d="M768.318 87.3545H785.723H803.124L810.982 77.6579L785.723 43.8912L760.464 77.6579L768.318 87.3545Z" stroke="#FFF9EF" stroke-width="1.5" stroke-linecap="round" stroke-linejoin="round"/>
<path d="M767.599 435.259H785.003H802.404L810.263 425.562L785.003 391.796L759.744 425.562L767.599 435.259Z" stroke="#FFF9EF" stroke-width="1.5" stroke-linecap="round" stroke-linejoin="round"/>
<path d="M768.031 261.307H785.435H802.836L810.695 251.61L785.435 217.843L760.176 251.61L768.031 261.307Z" stroke="#FFF9EF" stroke-width="1.5" stroke-linecap="round" stroke-linejoin="round"/>
<path d="M971.071 87.3545H988.475H1005.88L1013.73 77.6579L988.475 43.8912L963.216 77.6579L971.071 87.3545Z" stroke="#FFF9EF" stroke-width="1.5" stroke-linecap="round" stroke-linejoin="round"/>
<path d="M970.351 435.259H987.755H1005.16L1013.01 425.562L987.755 391.796L962.496 425.562L970.351 435.259Z" stroke="#FFF9EF" stroke-width="1.5" stroke-linecap="round" stroke-linejoin="round"/>
<path d="M970.783 261.307H988.187H1005.59L1013.45 251.61L988.187 217.843L962.928 251.61L970.783 261.307Z" stroke="#FFF9EF" stroke-width="1.5" stroke-linecap="round" stroke-linejoin="round"/>
<path d="M1275.2 87.3545H1292.6H1310L1317.86 77.6579L1292.6 43.8912L1267.34 77.6579L1275.2 87.3545Z" stroke="#FFF9EF" stroke-width="1.5" stroke-linecap="round" stroke-linejoin="round"/>
<path d="M1274.48 435.259H1291.88H1309.28L1317.14 425.562L1291.88 391.796L1266.62 425.562L1274.48 435.259Z" stroke="#FFF9EF" stroke-width="1.5" stroke-linecap="round" stroke-linejoin="round"/>
<path d="M1274.91 261.307H1292.32H1309.72L1317.57 251.61L1292.32 217.843L1267.06 251.61L1274.91 261.307Z" stroke="#FFF9EF" stroke-width="1.5" stroke-linecap="round" stroke-linejoin="round"/>
<path d="M920.239 87.3545H937.643H955.044L962.903 77.6579L937.643 43.8912L912.384 77.6579L920.239 87.3545Z" stroke="#FFF9EF" stroke-width="1.5" stroke-linecap="round" stroke-linejoin="round"/>
<path d="M919.519 435.259H936.923H954.324L962.183 425.562L936.923 391.796L911.664 425.562L919.519 435.259Z" stroke="#FFF9EF" stroke-width="1.5" stroke-linecap="round" stroke-linejoin="round"/>
<path d="M919.951 261.307H937.355H954.756L962.615 251.61L937.355 217.843L912.096 251.61L919.951 261.307Z" stroke="#FFF9EF" stroke-width="1.5" stroke-linecap="round" stroke-linejoin="round"/>
<path d="M1224.37 87.3545H1241.77H1259.17L1267.03 77.6579L1241.77 43.8912L1216.51 77.6579L1224.37 87.3545Z" stroke="#FFF9EF" stroke-width="1.5" stroke-linecap="round" stroke-linejoin="round"/>
<path d="M1223.65 435.259H1241.05H1258.45L1266.31 425.562L1241.05 391.796L1215.79 425.562L1223.65 435.259Z" stroke="#FFF9EF" stroke-width="1.5" stroke-linecap="round" stroke-linejoin="round"/>
<path d="M1224.08 261.307H1241.48H1258.88L1266.74 251.61L1241.48 217.843L1216.22 251.61L1224.08 261.307Z" stroke="#FFF9EF" stroke-width="1.5" stroke-linecap="round" stroke-linejoin="round"/>
<path d="M1122.99 87.3545H1140.4H1157.8L1165.65 77.6579L1140.4 43.8912L1115.14 77.6579L1122.99 87.3545Z" stroke="#FFF9EF" stroke-width="1.5" stroke-linecap="round" stroke-linejoin="round"/>
<path d="M1122.27 435.259H1139.68H1157.08L1164.93 425.562L1139.68 391.796L1114.42 425.562L1122.27 435.259Z" stroke="#FFF9EF" stroke-width="1.5" stroke-linecap="round" stroke-linejoin="round"/>
<path d="M1122.7 261.307H1140.11H1157.51L1165.37 251.61L1140.11 217.843L1114.85 251.61L1122.7 261.307Z" stroke="#FFF9EF" stroke-width="1.5" stroke-linecap="round" stroke-linejoin="round"/>
<path d="M1427.12 87.3545H1444.52H1461.92L1469.78 77.6579L1444.52 43.8912L1419.26 77.6579L1427.12 87.3545Z" stroke="#FFF9EF" stroke-width="1.5" stroke-linecap="round" stroke-linejoin="round"/>
<path d="M1426.4 435.259H1443.8H1461.2L1469.06 425.562L1443.8 391.796L1418.54 425.562L1426.4 435.259Z" stroke="#FFF9EF" stroke-width="1.5" stroke-linecap="round" stroke-linejoin="round"/>
<path d="M1426.83 261.307H1444.24H1461.64L1469.49 251.61L1444.24 217.843L1418.98 251.61L1426.83 261.307Z" stroke="#FFF9EF" stroke-width="1.5" stroke-linecap="round" stroke-linejoin="round"/>
<path d="M362.814 174.331H380.219H397.62L405.479 164.634L380.219 130.868L354.96 164.634L362.814 174.331Z" stroke="#FFF9EF" stroke-width="1.5" stroke-linecap="round" stroke-linejoin="round"/>
<path d="M362.526 348.282H379.931H397.332L405.19 338.586L379.931 304.819L354.672 338.586L362.526 348.282Z" stroke="#FFF9EF" stroke-width="1.5" stroke-linecap="round" stroke-linejoin="round"/>
<path d="M768.318 174.331H785.723H803.124L810.982 164.634L785.723 130.868L760.464 164.634L768.318 174.331Z" stroke="#FFF9EF" stroke-width="1.5" stroke-linecap="round" stroke-linejoin="round"/>
<path d="M768.031 348.282H785.435H802.836L810.695 338.586L785.435 304.819L760.176 338.586L768.031 348.282Z" stroke="#FFF9EF" stroke-width="1.5" stroke-linecap="round" stroke-linejoin="round"/>
<path d="M971.071 174.331H988.475H1005.88L1013.73 164.634L988.475 130.868L963.216 164.634L971.071 174.331Z" stroke="#FFF9EF" stroke-width="1.5" stroke-linecap="round" stroke-linejoin="round"/>
<path d="M970.783 348.282H988.187H1005.59L1013.45 338.586L988.187 304.819L962.928 338.586L970.783 348.282Z" stroke="#FFF9EF" stroke-width="1.5" stroke-linecap="round" stroke-linejoin="round"/>
<path d="M1275.2 174.331H1292.6H1310L1317.86 164.634L1292.6 130.868L1267.34 164.634L1275.2 174.331Z" stroke="#FFF9EF" stroke-width="1.5" stroke-linecap="round" stroke-linejoin="round"/>
<path d="M1274.91 348.282H1292.32H1309.72L1317.57 338.586L1292.32 304.819L1267.06 338.586L1274.91 348.282Z" stroke="#FFF9EF" stroke-width="1.5" stroke-linecap="round" stroke-linejoin="round"/>
<path d="M920.239 174.331H937.643H955.044L962.903 164.634L937.643 130.868L912.384 164.634L920.239 174.331Z" stroke="#FFF9EF" stroke-width="1.5" stroke-linecap="round" stroke-linejoin="round"/>
<path d="M919.951 348.282H937.355H954.756L962.615 338.586L937.355 304.819L912.096 338.586L919.951 348.282Z" stroke="#FFF9EF" stroke-width="1.5" stroke-linecap="round" stroke-linejoin="round"/>
<path d="M1224.37 174.331H1241.77H1259.17L1267.03 164.634L1241.77 130.868L1216.51 164.634L1224.37 174.331Z" stroke="#FFF9EF" stroke-width="1.5" stroke-linecap="round" stroke-linejoin="round"/>
<path d="M1224.08 348.282H1241.48H1258.88L1266.74 338.586L1241.48 304.819L1216.22 338.586L1224.08 348.282Z" stroke="#FFF9EF" stroke-width="1.5" stroke-linecap="round" stroke-linejoin="round"/>
<path d="M1122.99 174.331H1140.4H1157.8L1165.65 164.634L1140.4 130.868L1115.14 164.634L1122.99 174.331Z" stroke="#FFF9EF" stroke-width="1.5" stroke-linecap="round" stroke-linejoin="round"/>
<path d="M1122.7 348.282H1140.11H1157.51L1165.37 338.586L1140.11 304.819L1114.85 338.586L1122.7 348.282Z" stroke="#FFF9EF" stroke-width="1.5" stroke-linecap="round" stroke-linejoin="round"/>
<path d="M1427.12 174.331H1444.52H1461.92L1469.78 164.634L1444.52 130.868L1419.26 164.634L1427.12 174.331Z" stroke="#FFF9EF" stroke-width="1.5" stroke-linecap="round" stroke-linejoin="round"/>
<path d="M1426.83 348.282H1444.24H1461.64L1469.49 338.586L1444.24 304.819L1418.98 338.586L1426.83 348.282Z" stroke="#FFF9EF" stroke-width="1.5" stroke-linecap="round" stroke-linejoin="round"/>
<path d="M58.6865 87.3545H76.0912H93.4922L101.351 77.6579L76.0912 43.8912L50.8318 77.6579L58.6865 87.3545Z" stroke="#FFF9EF" stroke-width="1.5" stroke-linecap="round" stroke-linejoin="round"/>
<path d="M57.9665 435.259H75.3712H92.7722L100.631 425.562L75.3712 391.796L50.1118 425.562L57.9665 435.259Z" stroke="#FFF9EF" stroke-width="1.5" stroke-linecap="round" stroke-linejoin="round"/>
<path d="M58.3986 261.307H75.8034H93.2044L101.063 251.61L75.8034 217.843L50.544 251.61L58.3986 261.307Z" stroke="#FFF9EF" stroke-width="1.5" stroke-linecap="round" stroke-linejoin="round"/>
<path d="M464.19 87.3545H481.595H498.996L506.854 77.6579L481.595 43.8912L456.336 77.6579L464.19 87.3545Z" stroke="#FFF9EF" stroke-width="1.5" stroke-linecap="round" stroke-linejoin="round"/>
<path d="M463.471 435.259H480.875H498.276L506.135 425.562L480.875 391.796L455.616 425.562L463.471 435.259Z" stroke="#FFF9EF" stroke-width="1.5" stroke-linecap="round" stroke-linejoin="round"/>
<path d="M463.903 261.307H481.308H498.709L506.567 251.61L481.308 217.843L456.048 251.61L463.903 261.307Z" stroke="#FFF9EF" stroke-width="1.5" stroke-linecap="round" stroke-linejoin="round"/>
<path d="M58.6865 174.331H76.0912H93.4922L101.351 164.634L76.0912 130.868L50.8318 164.634L58.6865 174.331Z" stroke="#FFF9EF" stroke-width="1.5" stroke-linecap="round" stroke-linejoin="round"/>
<path d="M58.3986 348.282H75.8034H93.2044L101.063 338.586L75.8034 304.819L50.544 338.586L58.3986 348.282Z" stroke="#FFF9EF" stroke-width="1.5" stroke-linecap="round" stroke-linejoin="round"/>
<path d="M464.19 174.331H481.595H498.996L506.854 164.634L481.595 130.868L456.336 164.634L464.19 174.331Z" stroke="#FFF9EF" stroke-width="1.5" stroke-linecap="round" stroke-linejoin="round"/>
<path d="M463.903 348.282H481.308H498.709L506.567 338.586L481.308 304.819L456.048 338.586L463.903 348.282Z" stroke="#FFF9EF" stroke-width="1.5" stroke-linecap="round" stroke-linejoin="round"/>
<path d="M261.439 87.3545H278.843H296.244L304.103 77.6579L278.843 43.8912L253.584 77.6579L261.439 87.3545Z" stroke="#FFF9EF" stroke-width="1.5" stroke-linecap="round" stroke-linejoin="round"/>
<path d="M260.719 435.259H278.123H295.524L303.383 425.562L278.123 391.796L252.864 425.562L260.719 435.259Z" stroke="#FFF9EF" stroke-width="1.5" stroke-linecap="round" stroke-linejoin="round"/>
<path d="M261.151 261.307H278.555H295.956L303.815 251.61L278.555 217.843L253.296 251.61L261.151 261.307Z" stroke="#FFF9EF" stroke-width="1.5" stroke-linecap="round" stroke-linejoin="round"/>
<path d="M666.942 87.3545H684.347H701.748L709.606 77.6579L684.347 43.8912L659.088 77.6579L666.942 87.3545Z" stroke="#FFF9EF" stroke-width="1.5" stroke-linecap="round" stroke-linejoin="round"/>
<path d="M666.223 435.259H683.627H701.028L708.887 425.562L683.627 391.796L658.368 425.562L666.223 435.259Z" stroke="#FFF9EF" stroke-width="1.5" stroke-linecap="round" stroke-linejoin="round"/>
<path d="M666.655 261.307H684.059H701.46L709.319 251.61L684.059 217.843L658.8 251.61L666.655 261.307Z" stroke="#FFF9EF" stroke-width="1.5" stroke-linecap="round" stroke-linejoin="round"/>
<path d="M818.863 87.3545H836.267H853.668L861.527 77.6579L836.267 43.8912L811.008 77.6579L818.863 87.3545Z" stroke="#FFF9EF" stroke-width="1.5" stroke-linecap="round" stroke-linejoin="round"/>
<path d="M818.143 435.259H835.547H852.948L860.807 425.562L835.547 391.796L810.288 425.562L818.143 435.259Z" stroke="#FFF9EF" stroke-width="1.5" stroke-linecap="round" stroke-linejoin="round"/>
<path d="M818.575 261.307H835.979H853.38L861.239 251.61L835.979 217.843L810.72 251.61L818.575 261.307Z" stroke="#FFF9EF" stroke-width="1.5" stroke-linecap="round" stroke-linejoin="round"/>
<path d="M1021.61 87.3545H1039.02H1056.42L1064.28 77.6579L1039.02 43.8912L1013.76 77.6579L1021.61 87.3545Z" stroke="#FFF9EF" stroke-width="1.5" stroke-linecap="round" stroke-linejoin="round"/>
<path d="M1020.89 435.259H1038.3H1055.7L1063.56 425.562L1038.3 391.796L1013.04 425.562L1020.89 435.259Z" stroke="#FFF9EF" stroke-width="1.5" stroke-linecap="round" stroke-linejoin="round"/>
<path d="M1021.33 261.307H1038.73H1056.13L1063.99 251.61L1038.73 217.843L1013.47 251.61L1021.33 261.307Z" stroke="#FFF9EF" stroke-width="1.5" stroke-linecap="round" stroke-linejoin="round"/>
<path d="M1325.74 87.3545H1343.15H1360.55L1368.41 77.6579L1343.15 43.8912L1317.89 77.6579L1325.74 87.3545Z" stroke="#FFF9EF" stroke-width="1.5" stroke-linecap="round" stroke-linejoin="round"/>
<path d="M1325.02 435.259H1342.43H1359.83L1367.69 425.562L1342.43 391.796L1317.17 425.562L1325.02 435.259Z" stroke="#FFF9EF" stroke-width="1.5" stroke-linecap="round" stroke-linejoin="round"/>
<path d="M1325.45 261.307H1342.86H1360.26L1368.12 251.61L1342.86 217.843L1317.6 251.61L1325.45 261.307Z" stroke="#FFF9EF" stroke-width="1.5" stroke-linecap="round" stroke-linejoin="round"/>
<path d="M261.439 174.331H278.843H296.244L304.103 164.634L278.843 130.868L253.584 164.634L261.439 174.331Z" stroke="#FFF9EF" stroke-width="1.5" stroke-linecap="round" stroke-linejoin="round"/>
<path d="M261.151 348.282H278.555H295.956L303.815 338.586L278.555 304.819L253.296 338.586L261.151 348.282Z" stroke="#FFF9EF" stroke-width="1.5" stroke-linecap="round" stroke-linejoin="round"/>
<path d="M666.942 174.331H684.347H701.748L709.606 164.634L684.347 130.868L659.088 164.634L666.942 174.331Z" stroke="#FFF9EF" stroke-width="1.5" stroke-linecap="round" stroke-linejoin="round"/>
<path d="M666.655 348.282H684.059H701.46L709.319 338.586L684.059 304.819L658.8 338.586L666.655 348.282Z" stroke="#FFF9EF" stroke-width="1.5" stroke-linecap="round" stroke-linejoin="round"/>
<path d="M818.863 174.331H836.267H853.668L861.527 164.634L836.267 130.868L811.008 164.634L818.863 174.331Z" stroke="#FFF9EF" stroke-width="1.5" stroke-linecap="round" stroke-linejoin="round"/>
<path d="M818.575 348.282H835.979H853.38L861.239 338.586L835.979 304.819L810.72 338.586L818.575 348.282Z" stroke="#FFF9EF" stroke-width="1.5" stroke-linecap="round" stroke-linejoin="round"/>
<path d="M1021.61 174.331H1039.02H1056.42L1064.28 164.634L1039.02 130.868L1013.76 164.634L1021.61 174.331Z" stroke="#FFF9EF" stroke-width="1.5" stroke-linecap="round" stroke-linejoin="round"/>
<path d="M1021.33 348.282H1038.73H1056.13L1063.99 338.586L1038.73 304.819L1013.47 338.586L1021.33 348.282Z" stroke="#FFF9EF" stroke-width="1.5" stroke-linecap="round" stroke-linejoin="round"/>
<path d="M1325.74 174.331H1343.15H1360.55L1368.41 164.634L1343.15 130.868L1317.89 164.634L1325.74 174.331Z" stroke="#FFF9EF" stroke-width="1.5" stroke-linecap="round" stroke-linejoin="round"/>
<path d="M1325.45 348.282H1342.86H1360.26L1368.12 338.586L1342.86 304.819L1317.6 338.586L1325.45 348.282Z" stroke="#FFF9EF" stroke-width="1.5" stroke-linecap="round" stroke-linejoin="round"/>
<path d="M93.8685 0.40332H76.4637H59.0627L51.2043 10.0999L76.4637 43.8666L101.723 10.0999L93.8685 0.40332Z" stroke="#FFF9EF" stroke-width="1.5" stroke-linecap="round" stroke-linejoin="round"/>
<path d="M93.1485 348.308H75.7438H58.3428L50.4844 358.004L75.7438 391.771L101.003 358.004L93.1485 348.308Z" stroke="#FFF9EF" stroke-width="1.5" stroke-linecap="round" stroke-linejoin="round"/>
<path d="M93.5804 174.355H76.1756H58.7747L50.9163 184.052L76.1756 217.819L101.435 184.052L93.5804 174.355Z" stroke="#FFF9EF" stroke-width="1.5" stroke-linecap="round" stroke-linejoin="round"/>
<path d="M499.373 0.40332H481.968H464.567L456.708 10.0999L481.968 43.8666L507.227 10.0999L499.373 0.40332Z" stroke="#FFF9EF" stroke-width="1.5" stroke-linecap="round" stroke-linejoin="round"/>
<path d="M498.652 348.308H481.248H463.847L455.988 358.004L481.248 391.771L506.507 358.004L498.652 348.308Z" stroke="#FFF9EF" stroke-width="1.5" stroke-linecap="round" stroke-linejoin="round"/>
<path d="M499.085 174.355H481.68H464.279L456.42 184.052L481.68 217.819L506.939 184.052L499.085 174.355Z" stroke="#FFF9EF" stroke-width="1.5" stroke-linecap="round" stroke-linejoin="round"/>
<path d="M93.8685 87.3789H76.4637H59.0627L51.2043 97.0755L76.4637 130.842L101.723 97.0755L93.8685 87.3789Z" stroke="#FFF9EF" stroke-width="1.5" stroke-linecap="round" stroke-linejoin="round"/>
<path d="M93.1485 435.283H75.7438H58.3428L50.4844 444.98L75.7438 478.746L101.003 444.98L93.1485 435.283Z" stroke="#FFF9EF" stroke-width="1.5" stroke-linecap="round" stroke-linejoin="round"/>
<path d="M93.5804 261.331H76.1756H58.7747L50.9163 271.028L76.1756 304.794L101.435 271.028L93.5804 261.331Z" stroke="#FFF9EF" stroke-width="1.5" stroke-linecap="round" stroke-linejoin="round"/>
<path d="M499.373 87.3789H481.968H464.567L456.708 97.0755L481.968 130.842L507.227 97.0755L499.373 87.3789Z" stroke="#FFF9EF" stroke-width="1.5" stroke-linecap="round" stroke-linejoin="round"/>
<path d="M498.652 435.283H481.248H463.847L455.988 444.98L481.248 478.746L506.507 444.98L498.652 435.283Z" stroke="#FFF9EF" stroke-width="1.5" stroke-linecap="round" stroke-linejoin="round"/>
<path d="M499.085 261.331H481.68H464.279L456.42 271.028L481.68 304.794L506.939 271.028L499.085 261.331Z" stroke="#FFF9EF" stroke-width="1.5" stroke-linecap="round" stroke-linejoin="round"/>
<path d="M296.62 0.40332H279.216H261.815L253.956 10.0999L279.216 43.8666L304.475 10.0999L296.62 0.40332Z" stroke="#FFF9EF" stroke-width="1.5" stroke-linecap="round" stroke-linejoin="round"/>
<path d="M295.9 348.308H278.496H261.095L253.236 358.004L278.496 391.771L303.755 358.004L295.9 348.308Z" stroke="#FFF9EF" stroke-width="1.5" stroke-linecap="round" stroke-linejoin="round"/>
<path d="M296.333 174.355H278.928H261.527L253.668 184.052L278.928 217.819L304.187 184.052L296.333 174.355Z" stroke="#FFF9EF" stroke-width="1.5" stroke-linecap="round" stroke-linejoin="round"/>
<path d="M702.125 0.40332H684.72H667.319L659.46 10.0999L684.72 43.8666L709.979 10.0999L702.125 0.40332Z" stroke="#FFF9EF" stroke-width="1.5" stroke-linecap="round" stroke-linejoin="round"/>
<path d="M701.404 348.308H684H666.599L658.74 358.004L684 391.771L709.259 358.004L701.404 348.308Z" stroke="#FFF9EF" stroke-width="1.5" stroke-linecap="round" stroke-linejoin="round"/>
<path d="M701.836 174.355H684.432H667.031L659.172 184.052L684.432 217.819L709.691 184.052L701.836 174.355Z" stroke="#FFF9EF" stroke-width="1.5" stroke-linecap="round" stroke-linejoin="round"/>
<path d="M854.044 0.40332H836.64H819.239L811.38 10.0999L836.64 43.8666L861.899 10.0999L854.044 0.40332Z" stroke="#FFF9EF" stroke-width="1.5" stroke-linecap="round" stroke-linejoin="round"/>
<path d="M853.324 348.308H835.92H818.519L810.66 358.004L835.92 391.771L861.179 358.004L853.324 348.308Z" stroke="#FFF9EF" stroke-width="1.5" stroke-linecap="round" stroke-linejoin="round"/>
<path d="M853.756 174.355H836.352H818.951L811.092 184.052L836.352 217.819L861.611 184.052L853.756 174.355Z" stroke="#FFF9EF" stroke-width="1.5" stroke-linecap="round" stroke-linejoin="round"/>
<path d="M1056.8 0.40332H1039.39H1021.99L1014.13 10.0999L1039.39 43.8666L1064.65 10.0999L1056.8 0.40332Z" stroke="#FFF9EF" stroke-width="1.5" stroke-linecap="round" stroke-linejoin="round"/>
<path d="M1056.08 348.308H1038.67H1021.27L1013.41 358.004L1038.67 391.771L1063.93 358.004L1056.08 348.308Z" stroke="#FFF9EF" stroke-width="1.5" stroke-linecap="round" stroke-linejoin="round"/>
<path d="M1056.51 174.355H1039.1H1021.7L1013.84 184.052L1039.1 217.819L1064.36 184.052L1056.51 174.355Z" stroke="#FFF9EF" stroke-width="1.5" stroke-linecap="round" stroke-linejoin="round"/>
<path d="M1360.92 0.40332H1343.52H1326.12L1318.26 10.0999L1343.52 43.8666L1368.78 10.0999L1360.92 0.40332Z" stroke="#FFF9EF" stroke-width="1.5" stroke-linecap="round" stroke-linejoin="round"/>
<path d="M1360.2 348.308H1342.8H1325.4L1317.54 358.004L1342.8 391.771L1368.06 358.004L1360.2 348.308Z" stroke="#FFF9EF" stroke-width="1.5" stroke-linecap="round" stroke-linejoin="round"/>
<path d="M1360.64 174.355H1343.23H1325.83L1317.97 184.052L1343.23 217.819L1368.49 184.052L1360.64 174.355Z" stroke="#FFF9EF" stroke-width="1.5" stroke-linecap="round" stroke-linejoin="round"/>
<path d="M296.62 87.3789H279.216H261.815L253.956 97.0755L279.216 130.842L304.475 97.0755L296.62 87.3789Z" stroke="#FFF9EF" stroke-width="1.5" stroke-linecap="round" stroke-linejoin="round"/>
<path d="M295.9 435.283H278.496H261.095L253.236 444.98L278.496 478.746L303.755 444.98L295.9 435.283Z" stroke="#FFF9EF" stroke-width="1.5" stroke-linecap="round" stroke-linejoin="round"/>
<path d="M296.333 261.331H278.928H261.527L253.668 271.028L278.928 304.794L304.187 271.028L296.333 261.331Z" stroke="#FFF9EF" stroke-width="1.5" stroke-linecap="round" stroke-linejoin="round"/>
<path d="M702.125 87.3789H684.72H667.319L659.46 97.0755L684.72 130.842L709.979 97.0755L702.125 87.3789Z" stroke="#FFF9EF" stroke-width="1.5" stroke-linecap="round" stroke-linejoin="round"/>
<path d="M701.404 435.283H684H666.599L658.74 444.98L684 478.746L709.259 444.98L701.404 435.283Z" stroke="#FFF9EF" stroke-width="1.5" stroke-linecap="round" stroke-linejoin="round"/>
<path d="M701.836 261.331H684.432H667.031L659.172 271.028L684.432 304.794L709.691 271.028L701.836 261.331Z" stroke="#FFF9EF" stroke-width="1.5" stroke-linecap="round" stroke-linejoin="round"/>
<path d="M854.044 87.3789H836.64H819.239L811.38 97.0755L836.64 130.842L861.899 97.0755L854.044 87.3789Z" stroke="#FFF9EF" stroke-width="1.5" stroke-linecap="round" stroke-linejoin="round"/>
<path d="M853.324 435.283H835.92H818.519L810.66 444.98L835.92 478.746L861.179 444.98L853.324 435.283Z" stroke="#FFF9EF" stroke-width="1.5" stroke-linecap="round" stroke-linejoin="round"/>
<path d="M853.756 261.331H836.352H818.951L811.092 271.028L836.352 304.794L861.611 271.028L853.756 261.331Z" stroke="#FFF9EF" stroke-width="1.5" stroke-linecap="round" stroke-linejoin="round"/>
<path d="M1056.8 87.3789H1039.39H1021.99L1014.13 97.0755L1039.39 130.842L1064.65 97.0755L1056.8 87.3789Z" stroke="#FFF9EF" stroke-width="1.5" stroke-linecap="round" stroke-linejoin="round"/>
<path d="M1056.08 435.283H1038.67H1021.27L1013.41 444.98L1038.67 478.746L1063.93 444.98L1056.08 435.283Z" stroke="#FFF9EF" stroke-width="1.5" stroke-linecap="round" stroke-linejoin="round"/>
<path d="M1056.51 261.331H1039.1H1021.7L1013.84 271.028L1039.1 304.794L1064.36 271.028L1056.51 261.331Z" stroke="#FFF9EF" stroke-width="1.5" stroke-linecap="round" stroke-linejoin="round"/>
<path d="M1360.92 87.3789H1343.52H1326.12L1318.26 97.0755L1343.52 130.842L1368.78 97.0755L1360.92 87.3789Z" stroke="#FFF9EF" stroke-width="1.5" stroke-linecap="round" stroke-linejoin="round"/>
<path d="M1360.2 435.283H1342.8H1325.4L1317.54 444.98L1342.8 478.746L1368.06 444.98L1360.2 435.283Z" stroke="#FFF9EF" stroke-width="1.5" stroke-linecap="round" stroke-linejoin="round"/>
<path d="M1360.64 261.331H1343.23H1325.83L1317.97 271.028L1343.23 304.794L1368.49 271.028L1360.64 261.331Z" stroke="#FFF9EF" stroke-width="1.5" stroke-linecap="round" stroke-linejoin="round"/>
<path d="M195.244 0.40332H177.84H160.439L152.58 10.0999L177.84 43.8666L203.099 10.0999L195.244 0.40332Z" stroke="#FFF9EF" stroke-width="1.5" stroke-linecap="round" stroke-linejoin="round"/>
<path d="M194.524 348.308H177.12H159.719L151.86 358.004L177.12 391.771L202.379 358.004L194.524 348.308Z" stroke="#FFF9EF" stroke-width="1.5" stroke-linecap="round" stroke-linejoin="round"/>
<path d="M194.957 174.355H177.552H160.151L152.292 184.052L177.552 217.819L202.811 184.052L194.957 174.355Z" stroke="#FFF9EF" stroke-width="1.5" stroke-linecap="round" stroke-linejoin="round"/>
<path d="M600.749 0.40332H583.344H565.943L558.084 10.0999L583.344 43.8666L608.603 10.0999L600.749 0.40332Z" stroke="#FFF9EF" stroke-width="1.5" stroke-linecap="round" stroke-linejoin="round"/>
<path d="M600.028 348.308H582.624H565.223L557.364 358.004L582.624 391.771L607.883 358.004L600.028 348.308Z" stroke="#FFF9EF" stroke-width="1.5" stroke-linecap="round" stroke-linejoin="round"/>
<path d="M600.46 174.355H583.056H565.655L557.796 184.052L583.056 217.819L608.315 184.052L600.46 174.355Z" stroke="#FFF9EF" stroke-width="1.5" stroke-linecap="round" stroke-linejoin="round"/>
<path d="M195.244 87.3789H177.84H160.439L152.58 97.0755L177.84 130.842L203.099 97.0755L195.244 87.3789Z" stroke="#FFF9EF" stroke-width="1.5" stroke-linecap="round" stroke-linejoin="round"/>
<path d="M194.524 435.283H177.12H159.719L151.86 444.98L177.12 478.746L202.379 444.98L194.524 435.283Z" stroke="#FFF9EF" stroke-width="1.5" stroke-linecap="round" stroke-linejoin="round"/>
<path d="M194.957 261.331H177.552H160.151L152.292 271.028L177.552 304.794L202.811 271.028L194.957 261.331Z" stroke="#FFF9EF" stroke-width="1.5" stroke-linecap="round" stroke-linejoin="round"/>
<path d="M600.749 87.3789H583.344H565.943L558.084 97.0755L583.344 130.842L608.603 97.0755L600.749 87.3789Z" stroke="#FFF9EF" stroke-width="1.5" stroke-linecap="round" stroke-linejoin="round"/>
<path d="M600.028 435.283H582.624H565.223L557.364 444.98L582.624 478.746L607.883 444.98L600.028 435.283Z" stroke="#FFF9EF" stroke-width="1.5" stroke-linecap="round" stroke-linejoin="round"/>
<path d="M600.46 261.331H583.056H565.655L557.796 271.028L583.056 304.794L608.315 271.028L600.46 261.331Z" stroke="#FFF9EF" stroke-width="1.5" stroke-linecap="round" stroke-linejoin="round"/>
<path d="M397.997 0.40332H380.592H363.191L355.333 10.0999L380.592 43.8666L405.851 10.0999L397.997 0.40332Z" stroke="#FFF9EF" stroke-width="1.5" stroke-linecap="round" stroke-linejoin="round"/>
<path d="M397.276 348.308H379.872H362.471L354.612 358.004L379.872 391.771L405.131 358.004L397.276 348.308Z" stroke="#FFF9EF" stroke-width="1.5" stroke-linecap="round" stroke-linejoin="round"/>
<path d="M397.709 174.355H380.304H362.903L355.044 184.052L380.304 217.819L405.563 184.052L397.709 174.355Z" stroke="#FFF9EF" stroke-width="1.5" stroke-linecap="round" stroke-linejoin="round"/>
<path d="M803.501 0.40332H786.096H768.695L760.836 10.0999L786.096 43.8666L811.355 10.0999L803.501 0.40332Z" stroke="#FFF9EF" stroke-width="1.5" stroke-linecap="round" stroke-linejoin="round"/>
<path d="M802.78 348.308H785.376H767.975L760.116 358.004L785.376 391.771L810.635 358.004L802.78 348.308Z" stroke="#FFF9EF" stroke-width="1.5" stroke-linecap="round" stroke-linejoin="round"/>
<path d="M803.212 174.355H785.808H768.407L760.548 184.052L785.808 217.819L811.067 184.052L803.212 174.355Z" stroke="#FFF9EF" stroke-width="1.5" stroke-linecap="round" stroke-linejoin="round"/>
<path d="M1006.25 0.40332H988.848H971.447L963.588 10.0999L988.848 43.8666L1014.11 10.0999L1006.25 0.40332Z" stroke="#FFF9EF" stroke-width="1.5" stroke-linecap="round" stroke-linejoin="round"/>
<path d="M1005.53 348.308H988.128H970.727L962.868 358.004L988.128 391.771L1013.39 358.004L1005.53 348.308Z" stroke="#FFF9EF" stroke-width="1.5" stroke-linecap="round" stroke-linejoin="round"/>
<path d="M1005.96 174.355H988.56H971.159L963.3 184.052L988.56 217.819L1013.82 184.052L1005.96 174.355Z" stroke="#FFF9EF" stroke-width="1.5" stroke-linecap="round" stroke-linejoin="round"/>
<path d="M1310.38 0.40332H1292.98H1275.57L1267.72 10.0999L1292.98 43.8666L1318.24 10.0999L1310.38 0.40332Z" stroke="#FFF9EF" stroke-width="1.5" stroke-linecap="round" stroke-linejoin="round"/>
<path d="M1309.66 348.308H1292.26H1274.85L1267 358.004L1292.26 391.771L1317.51 358.004L1309.66 348.308Z" stroke="#FFF9EF" stroke-width="1.5" stroke-linecap="round" stroke-linejoin="round"/>
<path d="M1310.09 174.355H1292.69H1275.29L1267.43 184.052L1292.69 217.819L1317.95 184.052L1310.09 174.355Z" stroke="#FFF9EF" stroke-width="1.5" stroke-linecap="round" stroke-linejoin="round"/>
<path d="M955.42 0.40332H938.016H920.615L912.756 10.0999L938.016 43.8666L963.275 10.0999L955.42 0.40332Z" stroke="#FFF9EF" stroke-width="1.5" stroke-linecap="round" stroke-linejoin="round"/>
<path d="M954.7 348.308H937.296H919.895L912.036 358.004L937.296 391.771L962.555 358.004L954.7 348.308Z" stroke="#FFF9EF" stroke-width="1.5" stroke-linecap="round" stroke-linejoin="round"/>
<path d="M955.132 174.355H937.728H920.327L912.468 184.052L937.728 217.819L962.987 184.052L955.132 174.355Z" stroke="#FFF9EF" stroke-width="1.5" stroke-linecap="round" stroke-linejoin="round"/>
<path d="M1259.55 0.40332H1242.14H1224.74L1216.88 10.0999L1242.14 43.8666L1267.4 10.0999L1259.55 0.40332Z" stroke="#FFF9EF" stroke-width="1.5" stroke-linecap="round" stroke-linejoin="round"/>
<path d="M1258.83 348.308H1241.42H1224.02L1216.16 358.004L1241.42 391.771L1266.68 358.004L1258.83 348.308Z" stroke="#FFF9EF" stroke-width="1.5" stroke-linecap="round" stroke-linejoin="round"/>
<path d="M1259.26 174.355H1241.86H1224.46L1216.6 184.052L1241.86 217.819L1267.12 184.052L1259.26 174.355Z" stroke="#FFF9EF" stroke-width="1.5" stroke-linecap="round" stroke-linejoin="round"/>
<path d="M1158.17 0.40332H1140.77H1123.37L1115.51 10.0999L1140.77 43.8666L1166.03 10.0999L1158.17 0.40332Z" stroke="#FFF9EF" stroke-width="1.5" stroke-linecap="round" stroke-linejoin="round"/>
<path d="M1157.45 348.308H1140.05H1122.65L1114.79 358.004L1140.05 391.771L1165.31 358.004L1157.45 348.308Z" stroke="#FFF9EF" stroke-width="1.5" stroke-linecap="round" stroke-linejoin="round"/>
<path d="M1157.88 174.355H1140.48H1123.08L1115.22 184.052L1140.48 217.819L1165.74 184.052L1157.88 174.355Z" stroke="#FFF9EF" stroke-width="1.5" stroke-linecap="round" stroke-linejoin="round"/>
<path d="M1462.3 0.40332H1444.9H1427.49L1419.64 10.0999L1444.9 43.8666L1470.16 10.0999L1462.3 0.40332Z" stroke="#FFF9EF" stroke-width="1.5" stroke-linecap="round" stroke-linejoin="round"/>
<path d="M1461.58 348.308H1444.18H1426.77L1418.92 358.004L1444.18 391.771L1469.44 358.004L1461.58 348.308Z" stroke="#FFF9EF" stroke-width="1.5" stroke-linecap="round" stroke-linejoin="round"/>
<path d="M1462.01 174.355H1444.61H1427.21L1419.35 184.052L1444.61 217.819L1469.87 184.052L1462.01 174.355Z" stroke="#FFF9EF" stroke-width="1.5" stroke-linecap="round" stroke-linejoin="round"/>
<path d="M397.997 87.3789H380.592H363.191L355.333 97.0755L380.592 130.842L405.851 97.0755L397.997 87.3789Z" stroke="#FFF9EF" stroke-width="1.5" stroke-linecap="round" stroke-linejoin="round"/>
<path d="M397.276 435.283H379.872H362.471L354.612 444.98L379.872 478.746L405.131 444.98L397.276 435.283Z" stroke="#FFF9EF" stroke-width="1.5" stroke-linecap="round" stroke-linejoin="round"/>
<path d="M397.709 261.331H380.304H362.903L355.044 271.028L380.304 304.794L405.563 271.028L397.709 261.331Z" stroke="#FFF9EF" stroke-width="1.5" stroke-linecap="round" stroke-linejoin="round"/>
<path d="M803.501 87.3789H786.096H768.695L760.836 97.0755L786.096 130.842L811.355 97.0755L803.501 87.3789Z" stroke="#FFF9EF" stroke-width="1.5" stroke-linecap="round" stroke-linejoin="round"/>
<path d="M802.78 435.283H785.376H767.975L760.116 444.98L785.376 478.746L810.635 444.98L802.78 435.283Z" stroke="#FFF9EF" stroke-width="1.5" stroke-linecap="round" stroke-linejoin="round"/>
<path d="M803.212 261.331H785.808H768.407L760.548 271.028L785.808 304.794L811.067 271.028L803.212 261.331Z" stroke="#FFF9EF" stroke-width="1.5" stroke-linecap="round" stroke-linejoin="round"/>
<path d="M1006.25 87.3789H988.848H971.447L963.588 97.0755L988.848 130.842L1014.11 97.0755L1006.25 87.3789Z" stroke="#FFF9EF" stroke-width="1.5" stroke-linecap="round" stroke-linejoin="round"/>
<path d="M1005.53 435.283H988.128H970.727L962.868 444.98L988.128 478.746L1013.39 444.98L1005.53 435.283Z" stroke="#FFF9EF" stroke-width="1.5" stroke-linecap="round" stroke-linejoin="round"/>
<path d="M1005.96 261.331H988.56H971.159L963.3 271.028L988.56 304.794L1013.82 271.028L1005.96 261.331Z" stroke="#FFF9EF" stroke-width="1.5" stroke-linecap="round" stroke-linejoin="round"/>
<path d="M1310.38 87.3789H1292.98H1275.57L1267.72 97.0755L1292.98 130.842L1318.24 97.0755L1310.38 87.3789Z" stroke="#FFF9EF" stroke-width="1.5" stroke-linecap="round" stroke-linejoin="round"/>
<path d="M1309.66 435.283H1292.26H1274.85L1267 444.98L1292.26 478.746L1317.51 444.98L1309.66 435.283Z" stroke="#FFF9EF" stroke-width="1.5" stroke-linecap="round" stroke-linejoin="round"/>
<path d="M1310.09 261.331H1292.69H1275.29L1267.43 271.028L1292.69 304.794L1317.95 271.028L1310.09 261.331Z" stroke="#FFF9EF" stroke-width="1.5" stroke-linecap="round" stroke-linejoin="round"/>
<path d="M955.42 87.3789H938.016H920.615L912.756 97.0755L938.016 130.842L963.275 97.0755L955.42 87.3789Z" stroke="#FFF9EF" stroke-width="1.5" stroke-linecap="round" stroke-linejoin="round"/>
<path d="M954.7 435.283H937.296H919.895L912.036 444.98L937.296 478.746L962.555 444.98L954.7 435.283Z" stroke="#FFF9EF" stroke-width="1.5" stroke-linecap="round" stroke-linejoin="round"/>
<path d="M955.132 261.331H937.728H920.327L912.468 271.028L937.728 304.794L962.987 271.028L955.132 261.331Z" stroke="#FFF9EF" stroke-width="1.5" stroke-linecap="round" stroke-linejoin="round"/>
<path d="M1259.55 87.3789H1242.14H1224.74L1216.88 97.0755L1242.14 130.842L1267.4 97.0755L1259.55 87.3789Z" stroke="#FFF9EF" stroke-width="1.5" stroke-linecap="round" stroke-linejoin="round"/>
<path d="M1258.83 435.283H1241.42H1224.02L1216.16 444.98L1241.42 478.746L1266.68 444.98L1258.83 435.283Z" stroke="#FFF9EF" stroke-width="1.5" stroke-linecap="round" stroke-linejoin="round"/>
<path d="M1259.26 261.331H1241.86H1224.46L1216.6 271.028L1241.86 304.794L1267.12 271.028L1259.26 261.331Z" stroke="#FFF9EF" stroke-width="1.5" stroke-linecap="round" stroke-linejoin="round"/>
<path d="M1158.17 87.3789H1140.77H1123.37L1115.51 97.0755L1140.77 130.842L1166.03 97.0755L1158.17 87.3789Z" stroke="#FFF9EF" stroke-width="1.5" stroke-linecap="round" stroke-linejoin="round"/>
<path d="M1157.45 435.283H1140.05H1122.65L1114.79 444.98L1140.05 478.746L1165.31 444.98L1157.45 435.283Z" stroke="#FFF9EF" stroke-width="1.5" stroke-linecap="round" stroke-linejoin="round"/>
<path d="M1157.88 261.331H1140.48H1123.08L1115.22 271.028L1140.48 304.794L1165.74 271.028L1157.88 261.331Z" stroke="#FFF9EF" stroke-width="1.5" stroke-linecap="round" stroke-linejoin="round"/>
<path d="M1462.3 87.3789H1444.9H1427.49L1419.64 97.0755L1444.9 130.842L1470.16 97.0755L1462.3 87.3789Z" stroke="#FFF9EF" stroke-width="1.5" stroke-linecap="round" stroke-linejoin="round"/>
<path d="M1461.58 435.283H1444.18H1426.77L1418.92 444.98L1444.18 478.746L1469.44 444.98L1461.58 435.283Z" stroke="#FFF9EF" stroke-width="1.5" stroke-linecap="round" stroke-linejoin="round"/>
<path d="M1462.01 261.331H1444.61H1427.21L1419.35 271.028L1444.61 304.794L1469.87 271.028L1462.01 261.331Z" stroke="#FFF9EF" stroke-width="1.5" stroke-linecap="round" stroke-linejoin="round"/>
<path d="M109.231 87.3545H126.635H144.036L151.895 77.6579L126.635 43.8912L101.376 77.6579L109.231 87.3545Z" stroke="#FFF9EF" stroke-width="1.5" stroke-linecap="round" stroke-linejoin="round"/>
<path d="M108.511 435.259H125.915H143.316L151.175 425.562L125.915 391.796L100.656 425.562L108.511 435.259Z" stroke="#FFF9EF" stroke-width="1.5" stroke-linecap="round" stroke-linejoin="round"/>
<path d="M108.943 261.307H126.347H143.748L151.607 251.61L126.347 217.843L101.088 251.61L108.943 261.307Z" stroke="#FFF9EF" stroke-width="1.5" stroke-linecap="round" stroke-linejoin="round"/>
<path d="M514.734 87.3545H532.139H549.54L557.398 77.6579L532.139 43.8912L506.88 77.6579L514.734 87.3545Z" stroke="#FFF9EF" stroke-width="1.5" stroke-linecap="round" stroke-linejoin="round"/>
<path d="M514.015 435.259H531.419H548.82L556.679 425.562L531.419 391.796L506.16 425.562L514.015 435.259Z" stroke="#FFF9EF" stroke-width="1.5" stroke-linecap="round" stroke-linejoin="round"/>
<path d="M514.447 261.307H531.851H549.252L557.111 251.61L531.851 217.843L506.592 251.61L514.447 261.307Z" stroke="#FFF9EF" stroke-width="1.5" stroke-linecap="round" stroke-linejoin="round"/>
<path d="M109.231 174.331H126.635H144.036L151.895 164.634L126.635 130.868L101.376 164.634L109.231 174.331Z" stroke="#FFF9EF" stroke-width="1.5" stroke-linecap="round" stroke-linejoin="round"/>
<path d="M108.943 348.282H126.347H143.748L151.607 338.586L126.347 304.819L101.088 338.586L108.943 348.282Z" stroke="#FFF9EF" stroke-width="1.5" stroke-linecap="round" stroke-linejoin="round"/>
<path d="M514.734 174.331H532.139H549.54L557.398 164.634L532.139 130.868L506.88 164.634L514.734 174.331Z" stroke="#FFF9EF" stroke-width="1.5" stroke-linecap="round" stroke-linejoin="round"/>
<path d="M514.447 348.282H531.851H549.252L557.111 338.586L531.851 304.819L506.592 338.586L514.447 348.282Z" stroke="#FFF9EF" stroke-width="1.5" stroke-linecap="round" stroke-linejoin="round"/>
<path d="M311.983 87.3545H329.387H346.788L354.647 77.6579L329.387 43.8912L304.128 77.6579L311.983 87.3545Z" stroke="#FFF9EF" stroke-width="1.5" stroke-linecap="round" stroke-linejoin="round"/>
<path d="M311.263 435.259H328.667H346.068L353.927 425.562L328.667 391.796L303.408 425.562L311.263 435.259Z" stroke="#FFF9EF" stroke-width="1.5" stroke-linecap="round" stroke-linejoin="round"/>
<path d="M311.695 261.307H329.099H346.5L354.359 251.61L329.099 217.843L303.84 251.61L311.695 261.307Z" stroke="#FFF9EF" stroke-width="1.5" stroke-linecap="round" stroke-linejoin="round"/>
<path d="M717.487 87.3545H734.891H752.292L760.151 77.6579L734.891 43.8912L709.632 77.6579L717.487 87.3545Z" stroke="#FFF9EF" stroke-width="1.5" stroke-linecap="round" stroke-linejoin="round"/>
<path d="M716.767 435.259H734.171H751.572L759.431 425.562L734.171 391.796L708.912 425.562L716.767 435.259Z" stroke="#FFF9EF" stroke-width="1.5" stroke-linecap="round" stroke-linejoin="round"/>
<path d="M717.199 261.307H734.603H752.004L759.863 251.61L734.603 217.843L709.344 251.61L717.199 261.307Z" stroke="#FFF9EF" stroke-width="1.5" stroke-linecap="round" stroke-linejoin="round"/>
<path d="M869.407 87.3545H886.811H904.212L912.071 77.6579L886.811 43.8912L861.552 77.6579L869.407 87.3545Z" stroke="#FFF9EF" stroke-width="1.5" stroke-linecap="round" stroke-linejoin="round"/>
<path d="M868.686 435.259H886.091H903.492L911.351 425.562L886.091 391.796L860.832 425.562L868.686 435.259Z" stroke="#FFF9EF" stroke-width="1.5" stroke-linecap="round" stroke-linejoin="round"/>
<path d="M869.119 261.307H886.523H903.924L911.783 251.61L886.523 217.843L861.264 251.61L869.119 261.307Z" stroke="#FFF9EF" stroke-width="1.5" stroke-linecap="round" stroke-linejoin="round"/>
<path d="M1173.53 87.3545H1190.94H1208.34L1216.2 77.6579L1190.94 43.8912L1165.68 77.6579L1173.53 87.3545Z" stroke="#FFF9EF" stroke-width="1.5" stroke-linecap="round" stroke-linejoin="round"/>
<path d="M1172.81 435.259H1190.22H1207.62L1215.48 425.562L1190.22 391.796L1164.96 425.562L1172.81 435.259Z" stroke="#FFF9EF" stroke-width="1.5" stroke-linecap="round" stroke-linejoin="round"/>
<path d="M1173.25 261.307H1190.65H1208.05L1215.91 251.61L1190.65 217.843L1165.39 251.61L1173.25 261.307Z" stroke="#FFF9EF" stroke-width="1.5" stroke-linecap="round" stroke-linejoin="round"/>
<path d="M1072.16 87.3545H1089.56H1106.96L1114.82 77.6579L1089.56 43.8912L1064.3 77.6579L1072.16 87.3545Z" stroke="#FFF9EF" stroke-width="1.5" stroke-linecap="round" stroke-linejoin="round"/>
<path d="M1071.44 435.259H1088.84H1106.24L1114.1 425.562L1088.84 391.796L1063.58 425.562L1071.44 435.259Z" stroke="#FFF9EF" stroke-width="1.5" stroke-linecap="round" stroke-linejoin="round"/>
<path d="M1071.87 261.307H1089.28H1106.68L1114.53 251.61L1089.28 217.843L1064.02 251.61L1071.87 261.307Z" stroke="#FFF9EF" stroke-width="1.5" stroke-linecap="round" stroke-linejoin="round"/>
<path d="M1376.29 87.3545H1393.69H1411.09L1418.95 77.6579L1393.69 43.8912L1368.43 77.6579L1376.29 87.3545Z" stroke="#FFF9EF" stroke-width="1.5" stroke-linecap="round" stroke-linejoin="round"/>
<path d="M1375.57 435.259H1392.97H1410.37L1418.23 425.562L1392.97 391.796L1367.71 425.562L1375.57 435.259Z" stroke="#FFF9EF" stroke-width="1.5" stroke-linecap="round" stroke-linejoin="round"/>
<path d="M1376 261.307H1393.4H1410.8L1418.66 251.61L1393.4 217.843L1368.14 251.61L1376 261.307Z" stroke="#FFF9EF" stroke-width="1.5" stroke-linecap="round" stroke-linejoin="round"/>
<path d="M311.983 174.331H329.387H346.788L354.647 164.634L329.387 130.868L304.128 164.634L311.983 174.331Z" stroke="#FFF9EF" stroke-width="1.5" stroke-linecap="round" stroke-linejoin="round"/>
<path d="M311.695 348.282H329.099H346.5L354.359 338.586L329.099 304.819L303.84 338.586L311.695 348.282Z" stroke="#FFF9EF" stroke-width="1.5" stroke-linecap="round" stroke-linejoin="round"/>
<path d="M717.487 174.331H734.891H752.292L760.151 164.634L734.891 130.868L709.632 164.634L717.487 174.331Z" stroke="#FFF9EF" stroke-width="1.5" stroke-linecap="round" stroke-linejoin="round"/>
<path d="M717.199 348.282H734.603H752.004L759.863 338.586L734.603 304.819L709.344 338.586L717.199 348.282Z" stroke="#FFF9EF" stroke-width="1.5" stroke-linecap="round" stroke-linejoin="round"/>
<path d="M869.407 174.331H886.811H904.212L912.071 164.634L886.811 130.868L861.552 164.634L869.407 174.331Z" stroke="#FFF9EF" stroke-width="1.5" stroke-linecap="round" stroke-linejoin="round"/>
<path d="M869.119 348.282H886.523H903.924L911.783 338.586L886.523 304.819L861.264 338.586L869.119 348.282Z" stroke="#FFF9EF" stroke-width="1.5" stroke-linecap="round" stroke-linejoin="round"/>
<path d="M1173.53 174.331H1190.94H1208.34L1216.2 164.634L1190.94 130.868L1165.68 164.634L1173.53 174.331Z" stroke="#FFF9EF" stroke-width="1.5" stroke-linecap="round" stroke-linejoin="round"/>
<path d="M1173.25 348.282H1190.65H1208.05L1215.91 338.586L1190.65 304.819L1165.39 338.586L1173.25 348.282Z" stroke="#FFF9EF" stroke-width="1.5" stroke-linecap="round" stroke-linejoin="round"/>
<path d="M1072.16 174.331H1089.56H1106.96L1114.82 164.634L1089.56 130.868L1064.3 164.634L1072.16 174.331Z" stroke="#FFF9EF" stroke-width="1.5" stroke-linecap="round" stroke-linejoin="round"/>
<path d="M1071.87 348.282H1089.28H1106.68L1114.53 338.586L1089.28 304.819L1064.02 338.586L1071.87 348.282Z" stroke="#FFF9EF" stroke-width="1.5" stroke-linecap="round" stroke-linejoin="round"/>
<path d="M1376.29 174.331H1393.69H1411.09L1418.95 164.634L1393.69 130.868L1368.43 164.634L1376.29 174.331Z" stroke="#FFF9EF" stroke-width="1.5" stroke-linecap="round" stroke-linejoin="round"/>
<path d="M1376 348.282H1393.4H1410.8L1418.66 338.586L1393.4 304.819L1368.14 338.586L1376 348.282Z" stroke="#FFF9EF" stroke-width="1.5" stroke-linecap="round" stroke-linejoin="round"/>
<path d="M7.85469 87.3545H25.2594H42.6604L50.5188 77.6579L25.2594 43.8912L2.28461e-05 77.6579L7.85469 87.3545Z" stroke="#FFF9EF" stroke-width="1.5" stroke-linecap="round" stroke-linejoin="round"/>
<path d="M7.13448 435.259H24.5392H41.9402L49.7986 425.562L24.5392 391.796L-0.720192 425.562L7.13448 435.259Z" stroke="#FFF9EF" stroke-width="1.5" stroke-linecap="round" stroke-linejoin="round"/>
<path d="M7.5666 261.307H24.9713H42.3723L50.2307 251.61L24.9713 217.843L-0.288063 251.61L7.5666 261.307Z" stroke="#FFF9EF" stroke-width="1.5" stroke-linecap="round" stroke-linejoin="round"/>
<path d="M413.358 87.3545H430.763H448.164L456.022 77.6579L430.763 43.8912L405.504 77.6579L413.358 87.3545Z" stroke="#FFF9EF" stroke-width="1.5" stroke-linecap="round" stroke-linejoin="round"/>
<path d="M412.639 435.259H430.043H447.444L455.303 425.562L430.043 391.796L404.784 425.562L412.639 435.259Z" stroke="#FFF9EF" stroke-width="1.5" stroke-linecap="round" stroke-linejoin="round"/>
<path d="M413.071 261.307H430.475H447.876L455.735 251.61L430.475 217.843L405.216 251.61L413.071 261.307Z" stroke="#FFF9EF" stroke-width="1.5" stroke-linecap="round" stroke-linejoin="round"/>
<path d="M7.85469 174.331H25.2594H42.6604L50.5188 164.634L25.2594 130.868L2.28461e-05 164.634L7.85469 174.331Z" stroke="#FFF9EF" stroke-width="1.5" stroke-linecap="round" stroke-linejoin="round"/>
<path d="M7.5666 348.282H24.9713H42.3723L50.2307 338.586L24.9713 304.819L-0.288063 338.586L7.5666 348.282Z" stroke="#FFF9EF" stroke-width="1.5" stroke-linecap="round" stroke-linejoin="round"/>
<path d="M413.358 174.331H430.763H448.164L456.022 164.634L430.763 130.868L405.504 164.634L413.358 174.331Z" stroke="#FFF9EF" stroke-width="1.5" stroke-linecap="round" stroke-linejoin="round"/>
<path d="M413.071 348.282H430.475H447.876L455.735 338.586L430.475 304.819L405.216 338.586L413.071 348.282Z" stroke="#FFF9EF" stroke-width="1.5" stroke-linecap="round" stroke-linejoin="round"/>
<path d="M210.607 87.3545H228.011H245.412L253.271 77.6579L228.011 43.8912L202.752 77.6579L210.607 87.3545Z" stroke="#FFF9EF" stroke-width="1.5" stroke-linecap="round" stroke-linejoin="round"/>
<path d="M209.887 435.259H227.291H244.692L252.551 425.562L227.291 391.796L202.032 425.562L209.887 435.259Z" stroke="#FFF9EF" stroke-width="1.5" stroke-linecap="round" stroke-linejoin="round"/>
<path d="M210.319 261.307H227.723H245.124L252.983 251.61L227.723 217.843L202.464 251.61L210.319 261.307Z" stroke="#FFF9EF" stroke-width="1.5" stroke-linecap="round" stroke-linejoin="round"/>
<path d="M616.11 87.3545H633.515H650.916L658.774 77.6579L633.515 43.8912L608.256 77.6579L616.11 87.3545Z" stroke="#FFF9EF" stroke-width="1.5" stroke-linecap="round" stroke-linejoin="round"/>
<path d="M615.391 435.259H632.795H650.196L658.055 425.562L632.795 391.796L607.536 425.562L615.391 435.259Z" stroke="#FFF9EF" stroke-width="1.5" stroke-linecap="round" stroke-linejoin="round"/>
<path d="M615.823 261.307H633.227H650.628L658.487 251.61L633.227 217.843L607.968 251.61L615.823 261.307Z" stroke="#FFF9EF" stroke-width="1.5" stroke-linecap="round" stroke-linejoin="round"/>
<path d="M210.607 174.331H228.011H245.412L253.271 164.634L228.011 130.868L202.752 164.634L210.607 174.331Z" stroke="#FFF9EF" stroke-width="1.5" stroke-linecap="round" stroke-linejoin="round"/>
<path d="M210.319 348.282H227.723H245.124L252.983 338.586L227.723 304.819L202.464 338.586L210.319 348.282Z" stroke="#FFF9EF" stroke-width="1.5" stroke-linecap="round" stroke-linejoin="round"/>
<path d="M616.11 174.331H633.515H650.916L658.774 164.634L633.515 130.868L608.256 164.634L616.11 174.331Z" stroke="#FFF9EF" stroke-width="1.5" stroke-linecap="round" stroke-linejoin="round"/>
<path d="M615.823 348.282H633.227H650.628L658.487 338.586L633.227 304.819L607.968 338.586L615.823 348.282Z" stroke="#FFF9EF" stroke-width="1.5" stroke-linecap="round" stroke-linejoin="round"/>
</g>
<defs>
<clipPath id="clip0_2017_3465">
<rect width="1440" height="1440" fill="white" transform="translate(0 0.40332)"/>
</clipPath>
</defs>
</svg>
