<svg width="143" height="24" viewBox="0 0 143 24" fill="none" xmlns="http://www.w3.org/2000/svg">
<path d="M22.56 12.25C22.56 11.47 22.49 10.72 22.36 10H12V14.26H17.92C17.66 15.63 16.88 16.79 15.71 17.57V20.34H19.28C21.36 18.42 22.56 15.6 22.56 12.25Z" fill="#4285F4"/>
<path d="M11.9997 22.9996C14.9697 22.9996 17.4597 22.0196 19.2797 20.3396L15.7097 17.5696C14.7297 18.2296 13.4797 18.6296 11.9997 18.6296C9.13969 18.6296 6.70969 16.6996 5.83969 14.0996H2.17969V16.9396C3.98969 20.5296 7.69969 22.9996 11.9997 22.9996Z" fill="#34A853"/>
<path d="M5.84 14.0903C5.62 13.4303 5.49 12.7303 5.49 12.0003C5.49 11.2703 5.62 10.5703 5.84 9.91031V7.07031H2.18C1.43 8.55031 1 10.2203 1 12.0003C1 13.7803 1.43 15.4503 2.18 16.9303L5.03 14.7103L5.84 14.0903Z" fill="#FBBC05"/>
<path d="M11.9997 5.38C13.6197 5.38 15.0597 5.94 16.2097 7.02L19.3597 3.87C17.4497 2.09 14.9697 1 11.9997 1C7.69969 1 3.98969 3.47 2.17969 7.07L5.83969 9.91C6.70969 7.31 9.13969 5.38 11.9997 5.38Z" fill="#EA4335"/>
<path d="M38.79 13.85V14.816H37.684V17H36.62V14.816H32.532V13.864L36.536 7.2H37.684V13.85H38.79ZM33.708 13.85H36.62V8.992L33.708 13.85ZM41.7778 15.628V17H40.5738V15.628H41.7778ZM49.7959 13.85V14.816H48.6899V17H47.6259V14.816H43.5379V13.864L47.5419 7.2H48.6899V13.85H49.7959ZM44.7139 13.85H47.6259V8.992L44.7139 13.85Z" fill="#16181D"/>
<path d="M63.804 5.56388C63.6568 5.2664 63.3457 5.0771 63.004 5.0771C62.6623 5.0771 62.354 5.2664 62.204 5.56388L60.4179 9.1417L56.429 9.71502C56.0957 9.7637 55.8179 9.99086 55.7151 10.3019C55.6123 10.6129 55.6957 10.9563 55.9346 11.1862L58.829 13.9743L58.1457 17.9145C58.0901 18.2391 58.229 18.569 58.504 18.761C58.779 18.953 59.1429 18.9773 59.4429 18.8232L63.0068 16.9707L66.5707 18.8232C66.8707 18.9773 67.2346 18.9557 67.5096 18.761C67.7846 18.5663 67.9234 18.2391 67.8679 17.9145L67.1818 13.9743L70.0762 11.1862C70.3151 10.9563 70.4012 10.6129 70.2957 10.3019C70.1901 9.99086 69.9151 9.7637 69.5818 9.71502L65.5901 9.1417L63.804 5.56388Z" fill="#FEC84B"/>
<path d="M81.804 5.56388C81.6568 5.2664 81.3457 5.0771 81.004 5.0771C80.6623 5.0771 80.354 5.2664 80.204 5.56388L78.4179 9.1417L74.429 9.71502C74.0957 9.7637 73.8179 9.99086 73.7151 10.3019C73.6123 10.6129 73.6957 10.9563 73.9346 11.1862L76.829 13.9743L76.1457 17.9145C76.0901 18.2391 76.229 18.569 76.504 18.761C76.779 18.953 77.1429 18.9773 77.4429 18.8232L81.0068 16.9707L84.5707 18.8232C84.8707 18.9773 85.2346 18.9557 85.5096 18.761C85.7846 18.5663 85.9234 18.2391 85.8679 17.9145L85.1818 13.9743L88.0762 11.1862C88.3151 10.9563 88.4012 10.6129 88.2957 10.3019C88.1901 9.99086 87.9151 9.7637 87.5818 9.71502L83.5901 9.1417L81.804 5.56388Z" fill="#FEC84B"/>
<path d="M99.804 5.56388C99.6568 5.2664 99.3457 5.0771 99.004 5.0771C98.6623 5.0771 98.354 5.2664 98.204 5.56388L96.4179 9.1417L92.429 9.71502C92.0957 9.7637 91.8179 9.99086 91.7151 10.3019C91.6123 10.6129 91.6957 10.9563 91.9346 11.1862L94.829 13.9743L94.1457 17.9145C94.0901 18.2391 94.229 18.569 94.504 18.761C94.779 18.953 95.1429 18.9773 95.4429 18.8232L99.0068 16.9707L102.571 18.8232C102.871 18.9773 103.235 18.9557 103.51 18.761C103.785 18.5663 103.923 18.2391 103.868 17.9145L103.182 13.9743L106.076 11.1862C106.315 10.9563 106.401 10.6129 106.296 10.3019C106.19 9.99086 105.915 9.7637 105.582 9.71502L101.59 9.1417L99.804 5.56388Z" fill="#FEC84B"/>
<path d="M117.804 5.56388C117.657 5.2664 117.346 5.0771 117.004 5.0771C116.662 5.0771 116.354 5.2664 116.204 5.56388L114.418 9.1417L110.429 9.71502C110.096 9.7637 109.818 9.99086 109.715 10.3019C109.612 10.6129 109.696 10.9563 109.935 11.1862L112.829 13.9743L112.146 17.9145C112.09 18.2391 112.229 18.569 112.504 18.761C112.779 18.953 113.143 18.9773 113.443 18.8232L117.007 16.9707L120.571 18.8232C120.871 18.9773 121.235 18.9557 121.51 18.761C121.785 18.5663 121.923 18.2391 121.868 17.9145L121.182 13.9743L124.076 11.1862C124.315 10.9563 124.401 10.6129 124.296 10.3019C124.19 9.99086 123.915 9.7637 123.582 9.71502L119.59 9.1417L117.804 5.56388Z" fill="#FEC84B"/>
<path d="M135.804 5.56388C135.657 5.2664 135.346 5.0771 135.004 5.0771C134.662 5.0771 134.354 5.2664 134.204 5.56388L132.418 9.1417L128.429 9.71502C128.096 9.7637 127.818 9.99086 127.715 10.3019C127.612 10.6129 127.696 10.9563 127.935 11.1862L130.829 13.9743L130.146 17.9145C130.09 18.2391 130.229 18.569 130.504 18.761C130.779 18.953 131.143 18.9773 131.443 18.8232L135.007 16.9707L138.571 18.8232C138.871 18.9773 139.235 18.9557 139.51 18.761C139.785 18.5663 139.923 18.2391 139.868 17.9145L139.182 13.9743L142.076 11.1862C142.315 10.9563 142.401 10.6129 142.296 10.3019C142.19 9.99086 141.915 9.7637 141.582 9.71502L137.59 9.1417L135.804 5.56388Z" fill="#FEC84B"/>
</svg>
