<svg width="32" height="33" viewBox="0 0 32 33" fill="none" xmlns="http://www.w3.org/2000/svg">
<path fill-rule="evenodd" clip-rule="evenodd" d="M21.3333 4.46851H10.6667C6.98477 4.46851 4 7.45328 4 11.1352V21.8018C4 25.4837 6.98477 28.4685 10.6667 28.4685H21.3333C25.0152 28.4685 28 25.4837 28 21.8018V11.1352C28 7.45328 25.0152 4.46851 21.3333 4.46851ZM25.6667 21.8018C25.6593 24.192 23.7235 26.1278 21.3333 26.1352H10.6667C8.27647 26.1278 6.34065 24.192 6.33333 21.8018V11.1352C6.34065 8.74497 8.27647 6.80916 10.6667 6.80184H21.3333C23.7235 6.80916 25.6593 8.74497 25.6667 11.1352V21.8018ZM22.3333 11.4685C23.0697 11.4685 23.6667 10.8715 23.6667 10.1352C23.6667 9.3988 23.0697 8.80184 22.3333 8.80184C21.5969 8.80184 21 9.3988 21 10.1352C21 10.8715 21.5969 11.4685 22.3333 11.4685ZM16 10.4685C12.6863 10.4685 10 13.1548 10 16.4685C10 19.7822 12.6863 22.4685 16 22.4685C19.3137 22.4685 22 19.7822 22 16.4685C22.0036 14.8761 21.3725 13.3479 20.2465 12.2219C19.1205 11.096 17.5924 10.465 16 10.4685ZM12.3333 16.4685C12.3333 18.4936 13.9749 20.1352 16 20.1352C18.0251 20.1352 19.6667 18.4936 19.6667 16.4685C19.6667 14.4434 18.0251 12.8018 16 12.8018C13.9749 12.8018 12.3333 14.4434 12.3333 16.4685Z" fill="#0B0C0E"/>
</svg>
