<svg width="32" height="33" viewBox="0 0 32 33" fill="none" xmlns="http://www.w3.org/2000/svg">
<path fill-rule="evenodd" clip-rule="evenodd" d="M6 4.46851C4.89543 4.46851 4 5.36393 4 6.46851V26.4685C4 27.573 4.89543 28.4685 6 28.4685H26C27.1045 28.4685 28 27.573 28 26.4685V6.46851C28 5.36393 27.1045 4.46851 26 4.46851H6ZM11.361 9.80547C11.3685 11.0805 10.4141 11.8661 9.28164 11.8605C8.21476 11.8548 7.28476 11.0055 7.29039 9.80735C7.29601 8.68047 8.18664 7.77484 9.34352 7.80109C10.5173 7.82735 11.3685 8.68797 11.361 9.80547ZM16.3729 13.4842H13.0129H13.0111V24.8973H16.5623V24.631C16.5623 24.1245 16.5619 23.6178 16.5615 23.111C16.5604 21.7593 16.5592 20.4061 16.5661 19.0548C16.568 18.7266 16.5829 18.3854 16.6673 18.0722C16.9841 16.9022 18.0361 16.1466 19.2099 16.3324C19.9636 16.4504 20.4623 16.8873 20.6723 17.598C20.8017 18.0422 20.8599 18.5204 20.8655 18.9836C20.8807 20.3804 20.8785 21.7772 20.8764 23.1741C20.8756 23.6672 20.8748 24.1605 20.8748 24.6536V24.8954H24.4373V24.6217C24.4373 24.019 24.4371 23.4165 24.4367 22.814C24.436 21.308 24.4352 19.802 24.4392 18.2954C24.4411 17.6148 24.368 16.9436 24.2011 16.2854C23.9517 15.3066 23.4361 14.4966 22.598 13.9117C22.0036 13.4954 21.3511 13.2273 20.6217 13.1973C20.5387 13.1939 20.4549 13.1893 20.3708 13.1848C19.9979 13.1646 19.6188 13.1441 19.2623 13.2161C18.2423 13.4204 17.3461 13.8873 16.6692 14.7104C16.5905 14.8048 16.5136 14.9006 16.3988 15.0437L16.3729 15.0761V13.4842ZM7.57552 24.901H11.1099V13.4916H7.57552V24.901Z" fill="#0B0C0E"/>
</svg>
