<svg width="1440" height="1371" viewBox="0 0 1440 1371" fill="none" xmlns="http://www.w3.org/2000/svg">
<g clip-path="url(#clip0_2003_2102)">
<path d="M1063.47 6.61908C1077.04 4.0736 1083.83 2.80083 1090.66 3.16666C1097.49 3.53245 1104.11 5.52295 1117.33 9.50402L1365.11 84.0803C1404.2 95.846 1423.74 101.729 1435 116.869C1446.25 132.009 1446.25 152.42 1446.25 193.243L1446.25 569.503L1446.25 1258.5C1446.25 1312.24 1446.25 1339.11 1429.56 1355.81C1412.86 1372.5 1385.99 1372.5 1332.25 1372.5L108.751 1372.5C55.0112 1372.5 28.1413 1372.5 11.4464 1355.81C-5.24857 1339.11 -5.24865 1312.24 -5.24874 1258.5L-5.25175 301.612C-5.25183 256.36 -5.25196 233.734 7.88609 217.904C21.0241 202.073 43.2627 197.904 87.7398 189.564L1063.47 6.61908Z" fill="#FFF9EF"/>
<g opacity="0.15">
<path fill-rule="evenodd" clip-rule="evenodd" d="M1327.49 764.735L1327.39 764.795V828.826L1327.26 828.906L1274.71 861.118V925.424L1327.39 957.721V1022.64L1327.26 1022.72L1301.04 1038.79L1327.39 1054.95V1119.87L1327.27 1119.94L1274.44 1152.33L1274.31 1152.24L1247.82 1136L1222.46 1151.55V1216.69L1222.11 1216.91L1169.06 1249.43L1168.71 1249.21L1168.64 1249.16L1116.38 1281.19L1116.25 1281.12L1063.66 1248.88L1010.99 1281.17L1010.86 1281.09L958.295 1248.87L905.606 1281.17L905.475 1281.09L852.651 1248.71V1152.15L826.297 1136L800.933 1151.55V1216.69L800.582 1216.91L747.539 1249.43L747.188 1249.21L747.113 1249.16L694.848 1281.19L694.716 1281.12L641.893 1248.73V1248.72L589.202 1216.42V1152.37L588.763 1152.1V1119.09L378.966 1247.69V1248.04L378.834 1248.13L326.012 1280.5L325.88 1280.43L325.723 1280.33L324.932 1280.81L324.669 1280.32L325.192 1280L273.325 1248.21L220.63 1280.5L220.499 1280.43L167.676 1248.04L167.676 1151.81L115.249 1183.95L115.118 1183.86L89.0642 1167.89L62.5584 1184.14L62.207 1183.92L9.16516 1151.41V1151.39L-43.5251 1119.1V1053.64L-43.1737 1053.42L-43.0859 1053.37V989.31L-42.9544 989.232L9.86821 956.85L10 956.928L62.5613 989.15L115.249 956.85L115.381 956.928L167.943 989.15L220.631 956.85L220.635 956.852L273.321 924.553L273.453 924.631L325.586 956.591L325.749 956.49V924.382L325.88 924.304L377.917 892.404L325.748 860.425V795.504L378.703 763.043L431.657 795.504V859.768L484.084 827.631L484.216 827.711L536.511 859.768V827.475L589.465 795.014L589.597 795.096L642.419 827.475V892.397L642.288 892.477L592.949 922.721C593.198 923.27 593.337 923.886 593.337 924.538C593.337 925.223 593.182 925.871 592.905 926.442L616.556 940.939L642.156 925.245L642.288 925.323L694.584 957.382V893.107L747.539 860.646L747.671 860.728L773.597 876.62L799.967 860.455V828.495L800.099 828.415L852.922 796.035L853.047 796.115L905.6 828.329L931.405 812.511L905.343 796.535V731.614L905.475 731.534L958.034 699.316V667.016L958.166 666.936L1010.73 634.719V570.121L1063.42 537.821V537.808L1063.55 537.727L1116.38 505.347L1169.13 537.686L1328.17 440.195L1328.44 440.68L1169.33 538.21V602.47L1273.98 666.616L1274.44 666.332L1274.8 666.547L1327.83 699.061V699.624L1486.76 797.05L1486.5 797.535L1327.83 700.27V764.52L1327.49 764.735ZM1011.25 634.394L1063.42 602.419V538.466L1011.25 570.444V634.394ZM1011.57 634.914L1063.68 666.856L1115.85 634.88L1063.74 602.938L1011.57 634.914ZM1116.64 635.033V698.766L1116.72 698.819L1116.8 698.867L1165.52 669C1165.26 668.443 1165.12 667.816 1165.12 667.153C1165.12 664.84 1166.88 662.965 1169.06 662.965C1171.24 662.965 1173.01 664.84 1173.01 667.153C1173.01 667.816 1172.86 668.444 1172.6 669.001L1221.35 698.879L1221.4 698.846L1273.45 666.938L1169.02 602.921L1116.64 635.033ZM1165.78 669.484C1166.49 670.604 1167.7 671.342 1169.06 671.342C1170.43 671.342 1171.63 670.605 1172.34 669.486L1221.05 699.341V764.16L1169.76 795.596V731.333L1117.33 699.189L1165.78 669.484ZM1169.76 796.242L1221.28 764.664L1221.48 764.788V828.501L1169.5 860.37L1169.42 860.323L1169.33 860.27V797.056L1169.41 797.007L1169.76 796.791V796.242ZM1222.01 828.497V765.11L1274.09 797.035L1274.44 797.25L1326.86 765.117V828.503L1274.44 860.635L1222.01 828.497ZM1274.44 795.527L1326.18 763.81L1274.43 732.091L1222.69 763.807L1274.44 795.527ZM1274.57 731.526L1326.43 763.315V699.922L1274.44 668.053L1222.45 699.922V763.309L1274.43 731.444L1274.57 731.526ZM585.868 922.654C585.6 923.22 585.449 923.86 585.449 924.538C585.449 926.846 587.215 928.718 589.393 928.718C590.782 928.718 592.002 927.958 592.705 926.809L616.156 941.184L589.334 957.627L589.202 957.705V988.959L562.267 1005.47L536.907 989.924L536.775 989.846L511.446 1005.37L484.435 988.813L484.084 988.595L431.042 1021.12L430.691 1021.33V1021.87L379.405 1053.31V1021.33L431.525 989.388L431.657 989.302V989.296L483.824 957.315L483.952 957.394L484.084 957.472L536.907 925.089L537.038 925.012V892.72L585.868 922.654ZM586.137 922.171L537.038 892.074V827.798L589.465 795.661L641.893 827.798V892.074L592.689 922.235C591.984 921.098 590.771 920.349 589.393 920.349C588.041 920.349 586.848 921.07 586.137 922.171ZM326.275 860.102L378.439 892.078V892.074L431.13 859.774V795.827L378.703 763.689L326.275 795.827V860.102ZM431.13 924.059L379.487 892.404L431.13 860.747V924.059ZM431.657 924.693L431.657 860.425L431.657 860.42L483.821 892.397V956.665L431.657 924.693ZM694.584 988.768L694.584 958.031L642.156 925.89L617.082 941.262L694.584 988.768ZM616.682 941.507L694.584 989.263L694.584 1022.31L642.592 1054.17L642.508 1054.12L642.419 1054.07V1021.26L589.729 988.956V958.031L616.682 941.507ZM589.202 989.604L562.793 1005.79L589.202 1021.98V989.604ZM589.202 1022.63L562.267 1006.12L537.466 1021.32L537.477 1021.33V1086.13L563.973 1102.37L588.763 1087.17V1086.64L589.114 1086.42L589.202 1086.36V1022.63ZM589.729 1022.95L641.19 1054.5L589.729 1086.04V1022.95ZM641.719 1054.17L589.729 1022.31L589.729 989.604L641.893 1021.58V1054.07L641.719 1054.17ZM643.118 1054.5L694.584 1086.04V1022.95L643.118 1054.5ZM1274.18 861.131L1221.74 828.987L1170.02 860.693L1222.46 892.837V957.1L1274.18 925.393V861.131ZM1222.01 958.575L1222.11 958.513L1222.46 958.295V957.771L1274.43 925.907L1326.86 958.047V1022.32L1300.52 1038.47L1274.58 1022.56L1274.44 1022.49L1248.37 1038.46L1222.02 1022.31V1022.29L1222.01 1022.28V958.575ZM1221.48 958.897L1170.04 990.429L1221.48 1021.96V958.897ZM1222.02 1022.97V1054.62L1247.83 1038.79L1222.02 1022.97ZM1248.36 1039.12L1222.02 1055.26V1087.21L1222.02 1087.21V1119.54L1247.82 1135.36L1274.18 1119.2V1054.95L1248.36 1039.12ZM1274.71 1054.93V1119.52L1274.58 1119.6L1248.34 1135.68L1274.44 1151.68L1326.87 1119.54V1055.26L1300.52 1039.11L1274.71 1054.93ZM1299.99 1038.79L1274.44 1023.13L1248.9 1038.79L1274.45 1054.45L1299.99 1038.79ZM853.178 1248.38V1184.45L905.475 1216.5L905.606 1216.59L931.677 1200.6L958.034 1216.76V1248.38L905.606 1280.52L853.178 1248.38ZM958.034 1216.11L932.203 1200.28L958.034 1184.45V1216.11ZM931.676 1199.96L957.781 1183.95L905.87 1152.13V1184.14L931.676 1199.96ZM958.034 1119.52L958.034 1183.46L905.87 1151.49L905.87 1119.87L932.228 1103.71L958.034 1119.52ZM932.754 1103.38L958.034 1118.88V1087.89L932.754 1103.38ZM983.828 1103.38L958.561 1087.89V1118.86L983.828 1103.38ZM958.561 1054.91V1087.24L984.358 1103.05L1010.73 1086.89V1022.94L958.561 1054.91ZM1063.42 1118.86V1054.93L1011.25 1022.95V1086.88L1063.42 1118.86ZM1064.21 1119.34L1115.96 1151.06L1116.02 1151.02L1168.11 1119.09L1116.36 1087.37L1064.21 1119.34ZM1115.67 1151.53L1063.94 1119.82V1183.47L1115.67 1151.76V1151.53ZM1169.08 1054.43L1143.98 1039.04L1169.41 1023.46L1169.76 1023.24V990.906L1221.23 1022.45L1169.08 1054.43ZM1143.45 1039.37L1168.79 1054.91V1118.67L1168.64 1118.77L1116.64 1086.88V1055.8L1143.45 1039.37ZM1142.57 1038.18L1168.36 1022.38V990.907L1116.9 1022.45L1142.57 1038.18ZM1116.64 1022.92L1142.05 1038.51L1116.64 1054.08V1022.92ZM1115.85 1022.44L1064.38 990.898V1022.38L1090.17 1038.18L1115.85 1022.44ZM1088.76 1039.05L1062.98 1023.24V990.91L1011.51 1022.45L1063.68 1054.42L1088.76 1039.05ZM1010.99 1087.37L1063.16 1119.35L1011.25 1151.16V1119.54L984.884 1103.37L1010.99 1087.37ZM1063.42 1119.84L1011.51 1151.65L1063.42 1183.46V1119.84ZM958.561 1183.46L1010.46 1151.65L958.561 1119.83V1183.46ZM958.821 1119.35L1010.73 1151.16V1119.87L984.355 1103.7L958.821 1119.35ZM1063.94 1054.92V1118.86L1116.11 1086.88V1055.81L1116.02 1055.75L1089.31 1039.38L1063.94 1054.92ZM958.034 990.313L1010.46 1022.45L958.298 1054.42L905.87 1022.29V962.203C907.928 962.059 909.552 960.245 909.552 958.023C909.552 957.307 909.383 956.634 909.085 956.044L958.034 926.036V990.313ZM905.343 962.203C904.195 962.122 903.179 961.519 902.507 960.613L852.922 991.012L852.571 990.794L825.862 974.422L800.494 989.972V1022.29L826.866 1038.45L852.922 1022.49L853.047 1022.56L878.972 1038.46L905.343 1022.29V962.203ZM901.661 958.023C901.661 957.307 901.831 956.634 902.129 956.045L853.178 926.031V957.674L853.047 957.759L827.262 973.564L852.922 989.294L901.848 959.299C901.727 958.897 901.661 958.468 901.661 958.023ZM902.41 955.569C902.997 954.71 903.883 954.096 904.904 953.901V894.009L853.441 925.556L902.41 955.569ZM906.309 894V953.901C907.333 954.096 908.22 954.71 908.806 955.57L957.776 925.549L906.309 894ZM932.227 1103.06L958.034 1087.24V1054.91L905.61 1022.77L879.499 1038.78L905.87 1054.95V1086.9L932.227 1103.06ZM1062.98 990.247L1011.25 1021.96V958.031L1063.42 926.051V957.51L1063.33 957.565L1062.98 957.775V990.247ZM1116.11 1054.09V1022.95L1090.71 1038.52L1116.11 1054.09ZM1116.11 1021.96L1064.38 990.251V958.638L1090.74 942.479L1115.67 957.76V958.295L1116.11 958.566V1021.96ZM931.701 1103.38L905.87 1087.55V1119.22L931.701 1103.38ZM905.343 1055.26V1086.91L853.186 1118.87V1054.91L878.975 1039.1L905.343 1055.26ZM905.343 1087.55L853.186 1119.52V1119.52L853.178 1119.53V1151.52L905.343 1119.54V1087.55ZM826.823 1135.68L852.651 1119.84V1151.51L826.823 1135.68ZM853.178 1183.46V1152.17L905.343 1120.19V1151.48L853.178 1183.46ZM905.343 1152.13L853.432 1183.95L905.606 1215.94L931.15 1200.28L905.343 1184.46V1152.13ZM1010.73 1152.13L958.828 1183.95L984.932 1199.95L1010.73 1184.14V1152.13ZM985.459 1200.27L1011.12 1184.54L1011.25 1184.46V1152.13L1063.15 1183.95L1010.99 1215.92L985.459 1200.27ZM984.403 1200.27L958.561 1184.43V1216.11L984.403 1200.27ZM958.561 1216.76L984.93 1200.6L1010.86 1216.49L1010.99 1216.57L1063.42 1184.43V1248.38L1010.99 1280.52L958.561 1248.38V1216.76ZM1169.33 1183.78L1117.36 1151.93L1169.06 1120.23L1221.05 1152.1V1215.83L1169.33 1247.54V1183.78ZM168.461 989.479L220.367 957.657V1021.3L168.461 989.479ZM220.894 1085.88V1022.26L272.619 1053.97V1054.18L220.894 1085.88ZM220.894 1021.61L272.619 1053.32V989.367L220.894 957.656V1021.61ZM326.012 1085.52L274.274 1053.81L326.143 1022.02L326.275 1021.93V989.625L378 1021.33V1053.66L326.012 1085.52ZM378 1020.69L326.275 988.984V958.208L378 989.916V1020.69ZM274.023 989.916V1053.32L325.749 1021.61L325.749 958.208L274.023 989.916ZM272.97 988.844L325.056 956.915L273.321 925.198L221.164 957.174L272.897 988.888L272.97 988.844ZM379.405 1020.69V989.054L326.363 956.539L326.275 956.487V924.708L378.439 892.73V956.998L430.879 989.138L379.405 1020.69ZM378.966 1054.78L379.054 1054.73L379.405 1054.52V1053.96L430.691 1022.53V1086.79L483.124 1118.93L431.657 1150.49V1118.16L378.966 1085.87L378.966 1054.78ZM326.978 1086.65L378.439 1055.1V1085.87L352.068 1102.03L326.978 1086.65ZM325.57 1086.98L325.66 1087.03L326.012 1087.24L326.449 1086.97L351.542 1102.35L325.88 1118.09L325.748 1118.16V1150.82L273.584 1182.8L273.585 1122.78C275.64 1122.63 277.266 1120.81 277.266 1118.6C277.266 1117.96 277.132 1117.35 276.891 1116.81L325.57 1086.98ZM276.635 1116.32L325.044 1086.65L272.871 1054.67L221.14 1086.38L270.006 1116.33C270.708 1115.17 271.931 1114.41 273.322 1114.41C274.711 1114.41 275.932 1115.17 276.635 1116.32ZM269.749 1116.82L220.63 1086.71L168.204 1118.85L168.203 1182.8L220.63 1150.66L220.762 1150.74L273.057 1182.8V1122.78C271.002 1122.63 269.377 1120.81 269.377 1118.6C269.377 1117.96 269.511 1117.36 269.749 1116.82ZM62.2955 1053.05L62.2951 989.636L9.86821 957.495L-42.5592 989.636V1053.05L9.86817 1020.91L10.2193 1021.13L62.2955 1053.05ZM141.308 1070.72L115.951 1086.26V1086.48L167.677 1118.2V1086.88L141.308 1070.72ZM115.676 1085.78L140.782 1070.4L115.513 1054.9V1085.68L115.676 1085.78ZM168.204 1086.56L141.834 1070.4L167.944 1054.39L220.11 1086.37L168.204 1118.2V1086.56ZM167.677 989.969L167.677 1053.91L141.308 1070.07L115.513 1054.26V1025.95C117.568 1025.81 119.194 1023.99 119.194 1021.77C119.194 1021.11 119.05 1020.49 118.793 1019.93L167.677 989.969ZM114.986 1054.26V1025.95C112.93 1025.81 111.305 1023.99 111.305 1021.77C111.305 1019.46 113.07 1017.58 115.249 1017.58C116.617 1017.58 117.822 1018.32 118.53 1019.45L167.422 989.48L115.249 957.495L62.8225 989.636V1053.37L63.2616 1053.64V1053.65L89.619 1069.81L114.986 1054.26ZM220.367 1085.88L168.204 1053.91V989.969L220.367 1021.94V1085.88ZM-41.8579 1054.34L9.86817 1022.63L61.1615 1054.08L9.51657 1085.73L9.43932 1085.78L-41.8579 1054.34ZM-42.1201 1054.82L9.16516 1086.26V1149.67L-42.1201 1118.24V1054.82ZM62.5584 1182.42L11.265 1150.97L62.2951 1119.69V1151.49L87.6565 1167.03L62.5584 1182.42ZM62.9103 1119.31L62.8221 1119.37V1151.16L88.1857 1166.71L114.546 1150.55V1086.81L88.7402 1071L63.2616 1086.62V1119.1L62.9103 1119.31ZM63.2616 1055.38V1085.97L88.2136 1070.67L63.2616 1055.38ZM61.8563 1118.24V1055.38L10.5701 1086.81V1149.67L61.8563 1118.24ZM115.951 1087.13L167.676 1118.84V1151.16L115.249 1183.29L89.5934 1167.57L115.6 1151.63L115.951 1151.41V1087.13ZM114.986 1085.36V1054.9L90.1457 1070.13L114.986 1085.36ZM958.034 699.962L905.87 731.938V796.213L931.932 812.188L954.758 798.196C954.499 797.639 954.353 797.012 954.353 796.349C954.353 794.036 956.124 792.161 958.298 792.161C959.672 792.161 960.881 792.905 961.587 794.035L1010.46 764.075L958.034 731.937V699.962ZM961.84 798.197C962.098 797.639 962.243 797.012 962.243 796.349C962.243 795.694 962.101 795.073 961.849 794.52L1010.73 764.56V796.213L984.665 812.188L961.84 798.197ZM961.576 798.681L984.137 812.511L958.561 828.189V800.527C959.819 800.44 960.914 799.728 961.576 798.681ZM958.034 800.527V828.189L932.458 812.511L955.022 798.68C955.685 799.727 956.781 800.439 958.034 800.527ZM931.932 812.834L905.87 828.81L905.87 892.554L906.309 892.823V893.354L958.298 925.221L1010.44 893.258L958.034 861.134V828.835L931.932 812.834ZM958.561 828.835V860.81L1010.73 892.787V828.81L984.664 812.834L958.561 828.835ZM985.191 812.511L1011.25 828.486V892.787L1063.42 860.81V797.061L1062.98 796.791V796.265L1011.25 764.56V796.535L985.191 812.511ZM1010.73 763.59L958.561 731.614V699.962L1010.73 731.938V763.59ZM1011.25 763.59V731.614L958.561 699.315V667.339L1010.73 635.363V699.64L1062.98 731.669V731.884L1011.25 763.59ZM905.343 828.818V892.231L853.274 860.31L852.922 860.094L826.412 876.344L800.494 860.455V828.818L852.922 796.68L905.343 828.818ZM1063.95 538.468V602.167L1115.9 570.317L1063.95 538.468ZM1116.43 569.994L1064.2 537.976L1116.38 505.992L1168.61 538.009L1116.43 569.994ZM1116.64 570.512L1168.81 538.534V602.406L1116.64 634.387V570.512ZM1116.11 570.836V634.378L1064.28 602.608L1116.11 570.836ZM1011.25 635.363V699.317L1063.23 731.177L1063.33 731.117L1063.42 731.061V667.339L1011.25 635.363ZM1063.94 667.341V730.738L1116.11 698.761V635.365L1063.94 667.341ZM1168.36 732.194L1116.64 700.491V763.888L1168.36 795.595V732.194ZM1064.38 732.194L1116.11 700.483V763.902L1064.38 795.607V732.194ZM1116.38 764.382L1064.65 796.092L1116.37 827.799L1168.1 796.088L1116.38 764.382ZM1011.52 764.075L1062.98 732.531V795.62L1011.52 764.075ZM1115.41 828.932L1063.95 797.385V860.473L1115.41 828.932ZM1168.81 797.38L1117.34 828.925L1168.64 860.368L1168.81 860.266V797.38ZM1116.02 829.306L1115.93 829.255L1064.21 860.957L1115.95 892.668L1116.02 892.622L1168.11 860.692L1116.81 829.247L1116.37 829.521L1116.02 829.306ZM1010.99 893.594L1010.98 893.587L958.825 925.557L1011 957.537L1063.16 925.563L1011 893.587L1010.99 893.594ZM1063.42 861.456L1011.53 893.264L1063.42 925.07V861.456ZM1115.67 893.143L1063.95 861.442V925.391L1089.88 941.288L1115.67 925.479V893.143ZM1115.67 957.096L1091.28 942.148L1115.67 927.197V957.096ZM1117.34 957.591L1168.36 988.869V958.638L1141.99 942.476L1117.34 957.591ZM1141.46 942.154L1117.08 957.104V927.207L1141.46 942.154ZM1143.4 941.614L1169.76 957.775V988.873L1220.79 957.594L1169.06 925.882L1143.4 941.614ZM1168.79 925.399L1142.87 941.291L1117.08 925.48V893.699L1168.79 861.997V925.399ZM1169.33 925.398L1221.05 957.109V893.699L1169.33 861.996V925.398ZM958.561 989.994L1010.73 1021.97V958.016L958.561 926.036V989.994ZM1089.34 941.62L1063.94 957.187V926.051L1089.34 941.62ZM1116.64 958.889L1168.09 990.426L1116.64 1021.96V958.889ZM536.511 860.414L484.084 828.277L432.178 860.095L484.348 892.074V956.665L536.511 924.693V860.414ZM561.741 1005.79L536.775 990.491L511.973 1005.69L536.939 1021L561.741 1005.79ZM510.04 1006.23L484.084 990.32L432.349 1022.03L483.821 1053.58V1022.31L483.952 1022.22L510.04 1006.23ZM484.348 1022.63L510.567 1006.55L536.072 1022.19V1085.93L509.417 1102.27L484.348 1086.9V1022.63ZM483.821 1054.23L432.095 1022.53V1085.93L483.821 1117.64V1054.23ZM484.348 1087.55L508.89 1102.59L484.348 1117.64V1087.55ZM510.292 1103.45L484.084 1119.52L483.733 1119.31L483.651 1119.26L431.657 1151.13V1183.09L431.525 1183.17L378.966 1215.39V1247.04L588.763 1118.44V1118.21L563.973 1103.01L536.775 1119.69L536.643 1119.6L510.292 1103.45ZM564.499 1102.69L588.763 1117.56V1087.82L564.499 1102.69ZM563.447 1102.69L536.775 1119.04L510.818 1103.13L537.126 1087L537.477 1086.79V1086.77L563.447 1102.69ZM642.423 1086.19L642.416 1086.18L642.419 1086.18V1055.79L694.145 1087.5V1150.91L642.288 1119.13L642.156 1119.04L590.168 1150.91V1118.22L642.423 1086.19ZM590.168 1087.5L641.893 1055.79V1085.86L590.168 1117.56V1087.5ZM483.297 956.992L431.657 925.334V988.651L483.297 956.992ZM431.13 1150.49V1118.49L378.966 1086.52V1118.51L431.13 1150.49ZM378.439 1086.52V1118.2L352.598 1102.36L378.439 1086.52ZM378.966 1119.15V1214.74L431.13 1182.76V1151.13L378.966 1119.15ZM273.585 1183.76V1247.72L325.721 1279.68L378.439 1247.36V1215.39L352.643 1199.58L326.012 1215.9L325.88 1215.82L273.585 1183.76ZM352.117 1199.25L326.012 1215.26L273.857 1183.28L325.748 1151.47V1183.09L352.117 1199.25ZM353.169 1199.25L378.439 1214.74V1183.76L353.169 1199.25ZM378.167 1183.28L352.643 1198.93L326.275 1182.76V1151.47L378.167 1183.28ZM378.439 1182.8L326.275 1150.82V1118.49L352.072 1102.68L378.439 1118.84V1182.8ZM774.124 876.943L799.967 861.101V892.554L799.78 892.669L774.124 876.943ZM800.494 861.101V892.231L825.885 876.667L800.494 861.101ZM800.934 957.1V894.008L852.394 925.553L800.934 957.1ZM801.197 893.524L852.651 925.063V893.078L827.29 877.529L801.197 893.524ZM853.178 892.754V925.072L904.641 893.524L852.922 861.817L827.817 877.206L853.178 892.754ZM747.004 990.159L695.111 958.354V989.091L721.927 1005.53L747.004 990.159ZM747.552 989.838L747.539 989.831L747.527 989.839L695.365 957.86L747.276 926.036V957.674L773.647 973.841L747.552 989.838ZM747.527 990.483L747.539 990.491L747.552 990.483L799.708 1022.45L774.619 1037.83L722.453 1005.85L747.527 990.483ZM748.081 990.159L774.174 974.163L799.967 989.975V1021.97L748.081 990.159ZM774.7 973.841L799.967 989.327V958.549L799.806 958.45L774.7 973.841ZM773.597 877.266L799.528 893.161V957.097L747.803 925.395V893.078L773.597 877.266ZM773.07 876.943L747.539 861.292L695.111 893.43V957.369L747.276 925.391V892.754L773.07 876.943ZM799.528 957.974L774.173 973.518L747.803 957.355V926.036L799.528 957.747V957.974ZM800.494 989.327L825.336 974.099L800.494 958.872V989.327ZM852.651 957.355V926.04L801.196 957.586L826.735 973.242L852.651 957.355ZM852.922 1023.13L827.393 1038.78L852.922 1054.42L878.448 1038.78L852.922 1023.13ZM695.111 1022.93V1086.37L695.551 1086.64V1087.15L747.115 1118.77L747.276 1118.67V1054.91L695.111 1022.93ZM695.111 1021.96L721.522 1005.78L695.111 989.586V1021.96ZM695.371 1022.45L722.049 1006.1L774.212 1038.08L747.539 1054.42L695.371 1022.45ZM746.586 1119.09L695.551 1087.8V1150.37L746.586 1119.09ZM748.488 1119.09L800.664 1151.07L825.772 1135.68L799.967 1119.87V1087.53L748.488 1119.09ZM799.967 1086.88V1022.95L747.803 1054.92V1118.67L747.891 1118.72L747.962 1118.77L799.967 1086.88ZM800.494 1054.62L826.329 1038.78L800.494 1022.95V1054.62ZM800.494 1055.26V1119.54L826.298 1135.36L852.659 1119.2V1054.92L826.855 1039.11L800.494 1055.26ZM168.203 1183.77V1247.72L220.63 1279.86L273.058 1247.72V1183.77L220.63 1215.91L220.498 1215.82L168.203 1183.77ZM272.791 1183.29L220.63 1215.26L168.469 1183.29L220.63 1151.31L272.791 1183.29ZM642.156 1119.69L693.883 1151.4L642.156 1183.11L590.43 1151.4L642.156 1119.69ZM589.729 1216.1V1152.69L641.805 1184.61L641.893 1184.66V1248.08L589.729 1216.1ZM642.419 1248.08V1184.66L694.145 1152.96V1216.37L642.419 1248.08ZM747.803 1183.81V1247.54L799.528 1215.83V1152.1L747.539 1120.23L695.81 1151.94L747.803 1183.81ZM642.668 1248.57L694.848 1280.55L746.585 1248.84L694.41 1216.86L642.668 1248.57ZM747.276 1184.14V1247.54L695.551 1215.83V1152.43L747.276 1184.14ZM1169.42 1118.72L1169.49 1118.76L1221.49 1086.88V1022.95L1169.33 1054.92V1118.67L1169.42 1118.72ZM1222.19 1151.07L1170.01 1119.09L1221.49 1087.53V1119.87L1247.29 1135.68L1222.19 1151.07ZM1117.08 1215.83L1168.8 1247.54V1184.14L1117.08 1152.43V1215.83ZM1168.09 1248.82L1115.67 1216.69V1152.44L1063.95 1184.14V1248.39L1116.38 1280.52L1168.09 1248.82ZM378.966 892.73L431.13 924.708V988.651L378.966 956.671V892.73Z" fill="#FF1A26"/>
<path d="M-38.8785 924.895C-38.8785 927.211 -40.6445 929.084 -42.8232 929.084C-45.0015 929.084 -46.7676 927.211 -46.7676 924.895C-46.7676 922.587 -45.0015 920.706 -42.8232 920.706C-40.6445 920.706 -38.8785 922.587 -38.8785 924.895Z" fill="#FF1A26"/>
</g>
</g>
<defs>
<clipPath id="clip0_2003_2102">
<rect width="1440" height="1371" fill="white"/>
</clipPath>
</defs>
</svg>
