<svg width="143" height="24" viewBox="0 0 143 24" fill="none" xmlns="http://www.w3.org/2000/svg">
<g clip-path="url(#clip0_20_2233)">
<path d="M12 24C18.6274 24 24 18.6274 24 12C24 5.37258 18.6274 0 12 0C5.37258 0 0 5.37258 0 12C0 18.6274 5.37258 24 12 24Z" fill="#FF492C"/>
<path d="M17.1921 9.19213H15.1425C15.1977 8.87053 15.3969 8.69053 15.8001 8.48653L16.1769 8.29453C16.8513 7.94893 17.2113 7.55773 17.2113 6.91933C17.2113 6.51853 17.0553 6.20173 16.7457 5.97373C16.4361 5.74573 16.0713 5.63293 15.6441 5.63293C15.3136 5.62904 14.9892 5.72162 14.7105 5.89933C14.4297 6.07213 14.2209 6.29533 14.0913 6.57373L14.6841 7.16893C14.9145 6.70333 15.2481 6.47533 15.6873 6.47533C16.0593 6.47533 16.2873 6.66733 16.2873 6.93373C16.2873 7.15693 16.1769 7.34173 15.7497 7.55773L15.5073 7.67533C14.9817 7.94173 14.6169 8.24653 14.4057 8.59213C14.1945 8.93773 14.0913 9.37213 14.0913 9.89773V10.0417H17.1921V9.19213ZM16.9185 11.0209H13.5249L11.8281 13.9585H15.2217L16.9185 16.8985L18.6153 13.9585L16.9185 11.0209Z" fill="#FEFEFE"/>
<path d="M12.1224 15.9196C9.96242 15.9196 8.20322 14.1604 8.20322 12.0004C8.20322 9.84035 9.96242 8.08115 12.1224 8.08115L13.464 5.27555C13.0222 5.1877 12.5729 5.14349 12.1224 5.14355C8.33523 5.14355 5.26562 8.21316 5.26562 12.0004C5.26562 15.7876 8.33523 18.8572 12.1224 18.8572C13.5738 18.8599 14.988 18.3991 16.1592 17.542L14.676 14.9692C13.9664 15.5821 13.0601 15.9194 12.1224 15.9196Z" fill="#FEFEFE"/>
</g>
<path d="M38.79 13.85V14.816H37.684V17H36.62V14.816H32.532V13.864L36.536 7.2H37.684V13.85H38.79ZM33.708 13.85H36.62V8.992L33.708 13.85ZM41.7778 15.628V17H40.5738V15.628H41.7778ZM43.6919 14.13C43.6919 13.584 43.8039 13.094 44.0419 12.646L46.8139 7.2H47.9619L45.8619 11.316C46.0579 11.19 46.4079 11.12 46.7019 11.12C48.5079 11.12 49.7119 12.478 49.7119 14.144C49.7119 15.81 48.5079 17.168 46.7019 17.168C44.8819 17.168 43.6919 15.81 43.6919 14.13ZM44.7559 14.144C44.7559 15.348 45.5539 16.216 46.7019 16.216C47.8359 16.216 48.6479 15.348 48.6479 14.144C48.6479 12.926 47.8359 12.072 46.7019 12.072C45.5539 12.072 44.7559 12.926 44.7559 14.144Z" fill="#16181D"/>
<path d="M63.804 5.56388C63.6568 5.2664 63.3457 5.0771 63.004 5.0771C62.6623 5.0771 62.354 5.2664 62.204 5.56388L60.4179 9.1417L56.429 9.71502C56.0957 9.7637 55.8179 9.99086 55.7151 10.3019C55.6123 10.6129 55.6957 10.9563 55.9346 11.1862L58.829 13.9743L58.1457 17.9145C58.0901 18.2391 58.229 18.569 58.504 18.761C58.779 18.953 59.1429 18.9773 59.4429 18.8232L63.0068 16.9707L66.5707 18.8232C66.8707 18.9773 67.2346 18.9557 67.5096 18.761C67.7846 18.5663 67.9234 18.2391 67.8679 17.9145L67.1818 13.9743L70.0762 11.1862C70.3151 10.9563 70.4012 10.6129 70.2957 10.3019C70.1901 9.99086 69.9151 9.7637 69.5818 9.71502L65.5901 9.1417L63.804 5.56388Z" fill="#FEC84B"/>
<path d="M81.804 5.56388C81.6568 5.2664 81.3457 5.0771 81.004 5.0771C80.6623 5.0771 80.354 5.2664 80.204 5.56388L78.4179 9.1417L74.429 9.71502C74.0957 9.7637 73.8179 9.99086 73.7151 10.3019C73.6123 10.6129 73.6957 10.9563 73.9346 11.1862L76.829 13.9743L76.1457 17.9145C76.0901 18.2391 76.229 18.569 76.504 18.761C76.779 18.953 77.1429 18.9773 77.4429 18.8232L81.0068 16.9707L84.5707 18.8232C84.8707 18.9773 85.2346 18.9557 85.5096 18.761C85.7846 18.5663 85.9234 18.2391 85.8679 17.9145L85.1818 13.9743L88.0762 11.1862C88.3151 10.9563 88.4012 10.6129 88.2957 10.3019C88.1901 9.99086 87.9151 9.7637 87.5818 9.71502L83.5901 9.1417L81.804 5.56388Z" fill="#FEC84B"/>
<path d="M99.804 5.56388C99.6568 5.2664 99.3457 5.0771 99.004 5.0771C98.6623 5.0771 98.354 5.2664 98.204 5.56388L96.4179 9.1417L92.429 9.71502C92.0957 9.7637 91.8179 9.99086 91.7151 10.3019C91.6123 10.6129 91.6957 10.9563 91.9346 11.1862L94.829 13.9743L94.1457 17.9145C94.0901 18.2391 94.229 18.569 94.504 18.761C94.779 18.953 95.1429 18.9773 95.4429 18.8232L99.0068 16.9707L102.571 18.8232C102.871 18.9773 103.235 18.9557 103.51 18.761C103.785 18.5663 103.923 18.2391 103.868 17.9145L103.182 13.9743L106.076 11.1862C106.315 10.9563 106.401 10.6129 106.296 10.3019C106.19 9.99086 105.915 9.7637 105.582 9.71502L101.59 9.1417L99.804 5.56388Z" fill="#FEC84B"/>
<path d="M117.804 5.56388C117.657 5.2664 117.346 5.0771 117.004 5.0771C116.662 5.0771 116.354 5.2664 116.204 5.56388L114.418 9.1417L110.429 9.71502C110.096 9.7637 109.818 9.99086 109.715 10.3019C109.612 10.6129 109.696 10.9563 109.935 11.1862L112.829 13.9743L112.146 17.9145C112.09 18.2391 112.229 18.569 112.504 18.761C112.779 18.953 113.143 18.9773 113.443 18.8232L117.007 16.9707L120.571 18.8232C120.871 18.9773 121.235 18.9557 121.51 18.761C121.785 18.5663 121.923 18.2391 121.868 17.9145L121.182 13.9743L124.076 11.1862C124.315 10.9563 124.401 10.6129 124.296 10.3019C124.19 9.99086 123.915 9.7637 123.582 9.71502L119.59 9.1417L117.804 5.56388Z" fill="#FEC84B"/>
<path d="M135.804 5.56388C135.657 5.2664 135.346 5.0771 135.004 5.0771C134.662 5.0771 134.354 5.2664 134.204 5.56388L132.418 9.1417L128.429 9.71502C128.096 9.7637 127.818 9.99086 127.715 10.3019C127.612 10.6129 127.696 10.9563 127.935 11.1862L130.829 13.9743L130.146 17.9145C130.09 18.2391 130.229 18.569 130.504 18.761C130.779 18.953 131.143 18.9773 131.443 18.8232L135.007 16.9707L138.571 18.8232C138.871 18.9773 139.235 18.9557 139.51 18.761C139.785 18.5663 139.923 18.2391 139.868 17.9145L139.182 13.9743L142.076 11.1862C142.315 10.9563 142.401 10.6129 142.296 10.3019C142.19 9.99086 141.915 9.7637 141.582 9.71502L137.59 9.1417L135.804 5.56388Z" fill="#FEC84B"/>
<defs>
<clipPath id="clip0_20_2233">
<rect width="24" height="24" fill="white"/>
</clipPath>
</defs>
</svg>
