<svg width="189" height="33" viewBox="0 0 189 33" fill="none" xmlns="http://www.w3.org/2000/svg">
<g clip-path="url(#clip0_20_3376)">
<path fill-rule="evenodd" clip-rule="evenodd" d="M50.506 0.786865L34.3901 32.2916H19.2528L25.9973 19.2346H25.6947C20.1306 26.4576 11.8288 31.2125 0 32.2916V19.4154C0 19.4154 7.56716 18.9685 12.0157 14.2914H0V0.787114H13.5043V11.8942L13.8074 11.893L19.3258 0.787114H29.5388V11.8238L29.8419 11.8233L35.5672 0.786865H50.506Z" fill="#146EF5"/>
<path d="M138.383 28.8142H142.732V3.84985H138.383V28.8142Z" fill="#080808"/>
<path fill-rule="evenodd" clip-rule="evenodd" d="M114.411 28.5591C115.356 28.9522 116.317 29.1485 117.294 29.1485C118.909 29.1485 120.353 28.7557 121.627 27.9697C122.902 27.1838 123.89 26.1004 124.591 24.7198C125.292 23.3284 125.642 21.7513 125.642 19.9882C125.642 18.225 125.281 16.6479 124.559 15.2566C123.837 13.8652 122.833 12.7872 121.548 12.0225C120.263 11.2472 118.802 10.8648 117.167 10.8755C116.126 10.8755 115.128 11.0773 114.172 11.4809C113.216 11.8845 112.419 12.458 111.782 13.2014C111.733 13.258 111.685 13.3152 111.639 13.3729V3.86572H107.273V28.8141H111.607L111.598 26.4835C111.71 26.6208 111.83 26.7551 111.957 26.8863C112.648 27.598 113.465 28.1556 114.411 28.5591ZM118.871 24.5285C118.16 24.9639 117.347 25.1818 116.434 25.1818C115.531 25.1818 114.703 24.9587 113.949 24.5126C113.195 24.0559 112.594 23.4346 112.148 22.6487C111.713 21.8628 111.495 20.9706 111.495 19.9722C111.485 18.9739 111.697 18.0817 112.132 17.2958C112.579 16.4992 113.179 15.8832 113.933 15.4477C114.687 15.0017 115.52 14.7839 116.434 14.7946C117.347 14.7839 118.16 14.9964 118.871 15.4318C119.594 15.8566 120.146 16.4673 120.528 17.2639C120.921 18.0498 121.118 18.9527 121.118 19.9722C121.118 20.9918 120.921 21.8946 120.528 22.6805C120.146 23.4665 119.594 24.0825 118.871 24.5285Z" fill="#080808"/>
<path d="M56.8086 5.36328H61.7791L66.2255 21.6015L70.9556 5.36328H75.0977L80.2276 21.2756L84.4971 5.36328H89.0534L82.3304 28.8141H78.0448L72.8286 13.269L68.0401 28.8141H63.7067L56.8086 5.36328Z" fill="#080808"/>
<path fill-rule="evenodd" clip-rule="evenodd" d="M96.3943 29.2285C94.663 29.239 93.1019 28.8567 91.7105 28.0814C90.3299 27.2955 89.2412 26.2068 88.4446 24.8156C87.6587 23.4241 87.2656 21.8364 87.2656 20.0521C87.2656 18.321 87.6694 16.7543 88.4765 15.3524C89.2836 13.9504 90.3776 12.8565 91.7582 12.0705C93.139 11.2846 94.679 10.8916 96.3784 10.8916C98.2901 10.8916 99.9629 11.3164 101.397 12.1661C102.841 13.0158 103.919 14.2212 104.631 15.7825C105.353 17.3331 105.613 19.1121 105.411 21.1194H91.765C91.8032 21.9191 92.0027 22.6468 92.3637 23.302C92.7673 24.0242 93.3302 24.5872 94.0523 24.9907C94.7745 25.3943 95.5818 25.5961 96.4739 25.5961C97.1536 25.5856 97.7856 25.4687 98.3697 25.2457C98.9539 25.0121 99.4477 24.6987 99.8514 24.3058C100.265 23.9127 100.558 23.4667 100.728 22.9676H105.284C105.008 24.1889 104.456 25.2776 103.627 26.2334C102.799 27.1786 101.758 27.9167 100.505 28.4479C99.2512 28.9788 97.8811 29.239 96.3943 29.2285ZM92.3796 16.7384C92.125 17.1822 91.9488 17.6602 91.8506 18.1722H100.896C100.831 17.5253 100.631 16.9359 100.297 16.4038C99.9152 15.7772 99.3947 15.2939 98.7362 14.9541C98.0776 14.6036 97.3342 14.4284 96.5058 14.4284C95.6243 14.4284 94.8225 14.6301 94.1003 15.0337C93.378 15.4373 92.8044 16.0055 92.3796 16.7384Z" fill="#080808"/>
<path d="M128.843 11.2579C128.843 9.83474 129.167 8.57087 129.815 7.4663C130.463 6.35112 131.371 5.48551 132.539 4.86951C133.718 4.24287 135.093 3.91895 136.665 3.89771V7.76898C135.932 7.77961 135.306 7.93362 134.785 8.231C134.276 8.51776 133.883 8.93728 133.606 9.48957C133.352 9.99801 133.215 10.5875 133.195 11.2579H136.57V14.9381H133.192V28.8142H128.843V14.9381H126.039V11.2579H128.843Z" fill="#080808"/>
<path fill-rule="evenodd" clip-rule="evenodd" d="M153.791 29.1967C152.017 29.1967 150.429 28.8089 149.027 28.0337C147.636 27.2478 146.542 26.1643 145.745 24.7838C144.959 23.3923 144.566 21.8152 144.566 20.0521C144.566 18.2785 144.959 16.696 145.745 15.3046C146.542 13.9027 147.636 12.814 149.027 12.0387C150.429 11.2634 152.017 10.8757 153.791 10.8757C155.575 10.8757 157.168 11.2634 158.57 12.0387C159.983 12.814 161.082 13.8974 161.868 15.2887C162.654 16.68 163.052 18.2678 163.063 20.0521C163.052 21.8152 162.654 23.3923 161.868 24.7838C161.093 26.1643 159.999 27.2478 158.586 28.0337C157.173 28.8089 155.575 29.1967 153.791 29.1967ZM153.791 25.198C154.725 25.198 155.554 24.9855 156.276 24.5606C156.998 24.1252 157.556 23.5197 157.949 22.7445C158.342 21.9586 158.538 21.0612 158.538 20.0521C158.538 19.0326 158.342 18.1298 157.949 17.3438C157.556 16.5579 156.998 15.9525 156.276 15.5277C155.554 15.0922 154.725 14.8745 153.791 14.8745C152.867 14.8745 152.044 15.0922 151.321 15.5277C150.61 15.9525 150.057 16.5579 149.664 17.3438C149.271 18.1298 149.08 19.0326 149.091 20.0521C149.091 21.0612 149.287 21.9586 149.68 22.7445C150.084 23.5197 150.636 24.1252 151.337 24.5606C152.049 24.9855 152.867 25.198 153.791 25.198Z" fill="#080808"/>
<path d="M167.765 11.2578H162.922L168.163 28.8141H172.401L175.848 17.6009L179.571 28.8141H183.744L189.001 11.2578H184.621L181.639 22.1854L178.344 11.2578H174.106L170.826 22.4262L167.765 11.2578Z" fill="#080808"/>
</g>
<defs>
<clipPath id="clip0_20_3376">
<rect width="189" height="31.675" fill="white" transform="translate(0 0.667236)"/>
</clipPath>
</defs>
</svg>
