<svg width="32" height="33" viewBox="0 0 32 33" fill="none" xmlns="http://www.w3.org/2000/svg">
<path d="M28.7907 9.74911C28.6388 9.18565 28.342 8.67178 27.9298 8.25867C27.5177 7.84555 27.0045 7.54759 26.4413 7.39444C24.3533 6.82111 16 6.81178 16 6.81178C16 6.81178 7.64801 6.80244 5.55868 7.35044C4.99591 7.51064 4.48377 7.81281 4.07143 8.22796C3.65909 8.6431 3.36039 9.15727 3.20401 9.72111C2.65335 11.8091 2.64801 16.1398 2.64801 16.1398C2.64801 16.1398 2.64268 20.4918 3.18935 22.5584C3.49601 23.7011 4.39601 24.6038 5.54001 24.9118C7.64935 25.4851 15.98 25.4944 15.98 25.4944C15.98 25.4944 24.3333 25.5038 26.4213 24.9571C26.9847 24.8042 27.4983 24.507 27.9115 24.0947C28.3248 23.6824 28.6232 23.1694 28.7773 22.6064C29.3293 20.5198 29.3333 16.1904 29.3333 16.1904C29.3333 16.1904 29.36 11.8371 28.7907 9.74911ZM13.328 20.1518L13.3347 12.1518L20.2773 16.1584L13.328 20.1518Z" fill="#0B0C0E"/>
</svg>
